<?xml version="1.0" encoding="UTF-8" standalone="no"?>
<!DOCTYPE svg PUBLIC "-//W3C//DTD SVG 1.1//EN"
 "http://www.w3.org/Graphics/SVG/1.1/DTD/svg11.dtd">
<!-- Generated by graphviz version 12.1.0 (20240811.2233)
 -->
<!-- Title: Parser::parse Pages: 1 -->
<svg width="220pt" height="104pt"
 viewBox="0.00 0.00 220.00 104.00" xmlns="http://www.w3.org/2000/svg" xmlns:xlink="http://www.w3.org/1999/xlink">

<svg id="main" version="1.1" xmlns="http://www.w3.org/2000/svg" xmlns:xlink="http://www.w3.org/1999/xlink" xml:space="preserve">

<style type="text/css"><![CDATA[
.node, .edge {opacity: 0.7;}
.node.selected, .edge.selected {opacity: 1;}
.edge:hover path { stroke: red; }
.edge:hover polygon { stroke: red; fill: red; }
]]></style>
<script type="application/ecmascript" xlink:href="svg.min.js"/>
<svg id="graph" class="graph">
<g id="graph0" class="graph" transform="scale(1 1) rotate(0) translate(4 100)">
<title>Parser::parse</title>
<!-- Node1 -->
<g id="Node000001" class="node">
<title>Node1</title>
<g id="a_Node000001"><a xlink:title=" ">
<polygon fill="#999999" stroke="#666666" points="74.5,-58 0,-58 0,-38 74.5,-38 74.5,-58"/>
<text text-anchor="middle" x="37.25" y="-44.5" font-family="Helvetica,sans-Serif" font-size="10.00">Parser::parse</text>
</a>
</g>
</g>
<!-- Node2 -->
<g id="Node000002" class="node">
<title>Node2</title>
<g id="a_Node000002"><a xlink:href="classToken.html#ab2b08d2198a5a68cf098bbb692f8342f" target="_top" xlink:title=" ">
<polygon fill="white" stroke="#666666" points="209.38,-96 113.12,-96 113.12,-76 209.38,-76 209.38,-96"/>
<text text-anchor="middle" x="161.25" y="-82.5" font-family="Helvetica,sans-Serif" font-size="10.00">Token::getLexeme</text>
</a>
</g>
</g>
<!-- Node1&#45;&gt;Node2 -->
<g id="edge1_Node000001_Node000002" class="edge">
<title>Node1&#45;&gt;Node2</title>
<g id="a_edge1_Node000001_Node000002"><a xlink:title=" ">
<path fill="none" stroke="#63b8ff" d="M71.91,-58.48C85.51,-62.72 101.4,-67.67 115.92,-72.19"/>
<polygon fill="#63b8ff" stroke="#63b8ff" points="114.67,-75.47 125.25,-75.1 116.75,-68.78 114.67,-75.47"/>
</a>
</g>
</g>
<!-- Node3 -->
<g id="Node000003" class="node">
<title>Node3</title>
<g id="a_Node000003"><a xlink:href="classSymbol.html#a626bdd3948ea431fa1281416e0d012d5" target="_top" xlink:title=" ">
<polygon fill="white" stroke="#666666" points="212,-58 110.5,-58 110.5,-38 212,-38 212,-58"/>
<text text-anchor="middle" x="161.25" y="-44.5" font-family="Helvetica,sans-Serif" font-size="10.00">Symbol::getSymbol</text>
</a>
</g>
</g>
<!-- Node1&#45;&gt;Node3 -->
<g id="edge2_Node000001_Node000003" class="edge">
<title>Node1&#45;&gt;Node3</title>
<g id="a_edge2_Node000001_Node000003"><a xlink:title=" ">
<path fill="none" stroke="#63b8ff" d="M74.85,-48C82.39,-48 90.52,-48 98.67,-48"/>
<polygon fill="#63b8ff" stroke="#63b8ff" points="98.62,-51.5 108.62,-48 98.62,-44.5 98.62,-51.5"/>
</a>
</g>
</g>
<!-- Node4 -->
<g id="Node000004" class="node">
<title>Node4</title>
<g id="a_Node000004"><a xlink:href="classToken.html#aeda1c29c63c88e423312128306393ebb" target="_top" xlink:title=" ">
<polygon fill="white" stroke="#666666" points="202.62,-20 119.88,-20 119.88,0 202.62,0 202.62,-20"/>
<text text-anchor="middle" x="161.25" y="-6.5" font-family="Helvetica,sans-Serif" font-size="10.00">Token::getType</text>
</a>
</g>
</g>
<!-- Node1&#45;&gt;Node4 -->
<g id="edge3_Node000001_Node000004" class="edge">
<title>Node1&#45;&gt;Node4</title>
<g id="a_edge3_Node000001_Node000004"><a xlink:title=" ">
<path fill="none" stroke="#63b8ff" d="M71.91,-37.52C85.51,-33.28 101.4,-28.33 115.92,-23.81"/>
<polygon fill="#63b8ff" stroke="#63b8ff" points="116.75,-27.22 125.25,-20.9 114.67,-20.53 116.75,-27.22"/>
</a>
</g>
</g>
</g>
</svg>
</svg>

<style type='text/css'>
<![CDATA[
[data-mouse-over-selected='false'] { opacity: 0.7; }
[data-mouse-over-selected='true']  { opacity: 1.0; }
]]>
</style>
<script type="application/ecmascript"><![CDATA[
document.addEventListener('DOMContentLoaded', (event) => {
  highlightEdges();
  highlightAdjacentNodes();
});
]]></script>
</svg>
