<?xml version="1.0" encoding="UTF-8" standalone="no"?>
<!DOCTYPE svg PUBLIC "-//W3C//DTD SVG 1.1//EN"
 "http://www.w3.org/Graphics/SVG/1.1/DTD/svg11.dtd">
<!-- Generated by graphviz version 12.1.0 (20240811.2233)
 -->
<!-- Title: Lexer::classifyToken Pages: 1 -->
<svg width="267pt" height="218pt"
 viewBox="0.00 0.00 266.50 218.00" xmlns="http://www.w3.org/2000/svg" xmlns:xlink="http://www.w3.org/1999/xlink">
<g id="graph0" class="graph" transform="scale(1 1) rotate(0) translate(4 214)">
<title>Lexer::classifyToken</title>
<!-- Node1 -->
<g id="Node000001" class="node">
<title>Node1</title>
<g id="a_Node000001"><a xlink:title=" ">
<polygon fill="#999999" stroke="#666666" points="106,-115 0,-115 0,-95 106,-95 106,-115"/>
<text text-anchor="middle" x="53" y="-101.5" font-family="Helvetica,sans-Serif" font-size="10.00">Lexer::classifyToken</text>
</a>
</g>
</g>
<!-- Node2 -->
<g id="Node000002" class="node">
<title>Node2</title>
<g id="a_Node000002"><a xlink:href="classLexer.html#a7d2a073525f3dafc49701dc64fb8455a" target="_top" xlink:title=" ">
<polygon fill="white" stroke="#666666" points="232.62,-210 167.88,-210 167.88,-190 232.62,-190 232.62,-210"/>
<text text-anchor="middle" x="200.25" y="-196.5" font-family="Helvetica,sans-Serif" font-size="10.00">Lexer::isAll</text>
</a>
</g>
</g>
<!-- Node1&#45;&gt;Node2 -->
<g id="edge1_Node000001_Node000002" class="edge">
<title>Node1&#45;&gt;Node2</title>
<g id="a_edge1_Node000001_Node000002"><a xlink:title=" ">
<path fill="none" stroke="#63b8ff" d="M63.3,-115.3C78.37,-131.42 109.7,-162.66 142,-181 146.65,-183.64 151.72,-185.98 156.86,-188.04"/>
<polygon fill="#63b8ff" stroke="#63b8ff" points="155.39,-191.23 165.98,-191.36 157.78,-184.65 155.39,-191.23"/>
</a>
</g>
</g>
<!-- Node3 -->
<g id="Node000003" class="node">
<title>Node3</title>
<g id="a_Node000003"><a xlink:href="classLexer.html#acc2c15fd3f25cbc9e0fba3946ddfe1fe" target="_top" xlink:title=" ">
<polygon fill="white" stroke="#666666" points="245.75,-172 154.75,-172 154.75,-152 245.75,-152 245.75,-172"/>
<text text-anchor="middle" x="200.25" y="-158.5" font-family="Helvetica,sans-Serif" font-size="10.00">Lexer::isIdentifier</text>
</a>
</g>
</g>
<!-- Node1&#45;&gt;Node3 -->
<g id="edge2_Node000001_Node000003" class="edge">
<title>Node1&#45;&gt;Node3</title>
<g id="a_edge2_Node000001_Node000003"><a xlink:title=" ">
<path fill="none" stroke="#63b8ff" d="M76.57,-115.39C94.21,-123.36 119.45,-134.41 142,-143 146.35,-144.66 150.91,-146.31 155.49,-147.91"/>
<polygon fill="#63b8ff" stroke="#63b8ff" points="154.05,-151.12 164.65,-151.05 156.32,-144.5 154.05,-151.12"/>
</a>
</g>
</g>
<!-- Node4 -->
<g id="Node000004" class="node">
<title>Node4</title>
<g id="a_Node000004"><a xlink:href="classLexer.html#a4546b85fe75e0152a3cba759d18f240d" target="_top" xlink:title=" ">
<polygon fill="white" stroke="#666666" points="246.12,-134 154.38,-134 154.38,-114 246.12,-114 246.12,-134"/>
<text text-anchor="middle" x="200.25" y="-120.5" font-family="Helvetica,sans-Serif" font-size="10.00">Lexer::isKeyword</text>
</a>
</g>
</g>
<!-- Node1&#45;&gt;Node4 -->
<g id="edge3_Node000001_Node000004" class="edge">
<title>Node1&#45;&gt;Node4</title>
<g id="a_edge3_Node000001_Node000004"><a xlink:title=" ">
<path fill="none" stroke="#63b8ff" d="M106.44,-111.86C118.26,-113.41 130.86,-115.05 142.84,-116.62"/>
<polygon fill="#63b8ff" stroke="#63b8ff" points="142.22,-120.07 152.59,-117.9 143.13,-113.13 142.22,-120.07"/>
</a>
</g>
</g>
<!-- Node5 -->
<g id="Node000005" class="node">
<title>Node5</title>
<g id="a_Node000005"><a xlink:href="classLexer.html#a6c8157cad4951a2f24c763ab5645e693" target="_top" xlink:title=" ">
<polygon fill="white" stroke="#666666" points="258.5,-96 142,-96 142,-76 258.5,-76 258.5,-96"/>
<text text-anchor="middle" x="200.25" y="-82.5" font-family="Helvetica,sans-Serif" font-size="10.00">Lexer::isNumericLiteral</text>
</a>
</g>
</g>
<!-- Node1&#45;&gt;Node5 -->
<g id="edge4_Node000001_Node000005" class="edge">
<title>Node1&#45;&gt;Node5</title>
<g id="a_edge4_Node000001_Node000005"><a xlink:title=" ">
<path fill="none" stroke="#63b8ff" d="M106.44,-98.14C114.28,-97.11 122.47,-96.04 130.58,-94.98"/>
<polygon fill="#63b8ff" stroke="#63b8ff" points="131.01,-98.46 140.47,-93.69 130.1,-91.52 131.01,-98.46"/>
</a>
</g>
</g>
<!-- Node6 -->
<g id="Node000006" class="node">
<title>Node6</title>
<g id="a_Node000006"><a xlink:href="classLexer.html#af0d792d931a1c5c168bc224b5218bdb8" target="_top" xlink:title=" ">
<polygon fill="white" stroke="#666666" points="245.75,-58 154.75,-58 154.75,-38 245.75,-38 245.75,-58"/>
<text text-anchor="middle" x="200.25" y="-44.5" font-family="Helvetica,sans-Serif" font-size="10.00">Lexer::isOperator</text>
</a>
</g>
</g>
<!-- Node1&#45;&gt;Node6 -->
<g id="edge5_Node000001_Node000006" class="edge">
<title>Node1&#45;&gt;Node6</title>
<g id="a_edge5_Node000001_Node000006"><a xlink:title=" ">
<path fill="none" stroke="#63b8ff" d="M76.57,-94.61C94.21,-86.64 119.45,-75.59 142,-67 146.35,-65.34 150.91,-63.69 155.49,-62.09"/>
<polygon fill="#63b8ff" stroke="#63b8ff" points="156.32,-65.5 164.65,-58.95 154.05,-58.88 156.32,-65.5"/>
</a>
</g>
</g>
<!-- Node7 -->
<g id="Node000007" class="node">
<title>Node7</title>
<g id="a_Node000007"><a xlink:href="classLexer.html#aed757d18850c5bfe53b6b0fa65a07587" target="_top" xlink:title=" ">
<polygon fill="white" stroke="#666666" points="252.88,-20 147.62,-20 147.62,0 252.88,0 252.88,-20"/>
<text text-anchor="middle" x="200.25" y="-6.5" font-family="Helvetica,sans-Serif" font-size="10.00">Lexer::isStringLiteral</text>
</a>
</g>
</g>
<!-- Node1&#45;&gt;Node7 -->
<g id="edge6_Node000001_Node000007" class="edge">
<title>Node1&#45;&gt;Node7</title>
<g id="a_edge6_Node000001_Node000007"><a xlink:title=" ">
<path fill="none" stroke="#63b8ff" d="M63.3,-94.7C78.37,-78.58 109.7,-47.34 142,-29 144.64,-27.5 147.42,-26.1 150.27,-24.79"/>
<polygon fill="#63b8ff" stroke="#63b8ff" points="151.47,-28.08 159.38,-21.02 148.8,-21.6 151.47,-28.08"/>
</a>
</g>
</g>
</g>
</svg>
