<?xml version="1.0" encoding="UTF-8" standalone="no"?>
<!DOCTYPE svg PUBLIC "-//W3C//DTD SVG 1.1//EN"
 "http://www.w3.org/Graphics/SVG/1.1/DTD/svg11.dtd">
<!-- Generated by graphviz version 12.1.0 (20240811.2233)
 -->
<!-- Title: Symbol::getSymbol Pages: 1 -->
<svg width="485pt" height="224pt"
 viewBox="0.00 0.00 485.25 224.00" xmlns="http://www.w3.org/2000/svg" xmlns:xlink="http://www.w3.org/1999/xlink">

<svg id="main" version="1.1" xmlns="http://www.w3.org/2000/svg" xmlns:xlink="http://www.w3.org/1999/xlink" xml:space="preserve">

<style type="text/css"><![CDATA[
.node, .edge {opacity: 0.7;}
.node.selected, .edge.selected {opacity: 1;}
.edge:hover path { stroke: red; }
.edge:hover polygon { stroke: red; fill: red; }
]]></style>
<script type="application/ecmascript" xlink:href="svg.min.js"/>
<svg id="graph" class="graph">
<g id="graph0" class="graph" transform="scale(1 1) rotate(0) translate(4 220)">
<title>Symbol::getSymbol</title>
<!-- Node1 -->
<g id="Node000001" class="node">
<title>Node1</title>
<g id="a_Node000001"><a xlink:title=" ">
<polygon fill="#999999" stroke="#666666" points="477.25,-121 375.75,-121 375.75,-101 477.25,-101 477.25,-121"/>
<text text-anchor="middle" x="426.5" y="-107.5" font-family="Helvetica,sans-Serif" font-size="10.00">Symbol::getSymbol</text>
</a>
</g>
</g>
<!-- Node2 -->
<g id="Node000002" class="node">
<title>Node2</title>
<g id="a_Node000002"><a xlink:href="classParser.html#ae3862281fb56fea407bbd332c5bebe10" target="_top" xlink:title=" ">
<polygon fill="white" stroke="#666666" points="337.12,-216 210.12,-216 210.12,-196 337.12,-196 337.12,-216"/>
<text text-anchor="middle" x="273.62" y="-202.5" font-family="Helvetica,sans-Serif" font-size="10.00">Parser::computeLL1Table</text>
</a>
</g>
</g>
<!-- Node1&#45;&gt;Node2 -->
<g id="edge1_Node000001_Node000002" class="edge">
<title>Node1&#45;&gt;Node2</title>
<g id="a_edge1_Node000001_Node000002"><a xlink:title=" ">
<path fill="none" stroke="#63b8ff" d="M409.12,-129.64C393.04,-146.84 367.04,-171.93 339.75,-187 333.67,-190.36 326.93,-193.18 320.16,-195.53"/>
<polygon fill="#63b8ff" stroke="#63b8ff" points="411.4,-132.32 415.55,-122.57 406.23,-127.61 411.4,-132.32"/>
</a>
</g>
</g>
<!-- Node4 -->
<g id="Node000004" class="node">
<title>Node4</title>
<g id="a_Node000004"><a xlink:href="classParser.html#a271f328741d9e36146ed32bcb382d9a8" target="_top" xlink:title=" ">
<polygon fill="white" stroke="#666666" points="339.75,-178 207.5,-178 207.5,-158 339.75,-158 339.75,-178"/>
<text text-anchor="middle" x="273.62" y="-164.5" font-family="Helvetica,sans-Serif" font-size="10.00">Parser::leftFactorGrammar</text>
</a>
</g>
</g>
<!-- Node1&#45;&gt;Node4 -->
<g id="edge3_Node000001_Node000004" class="edge">
<title>Node1&#45;&gt;Node4</title>
<g id="a_edge3_Node000001_Node000004"><a xlink:title=" ">
<path fill="none" stroke="#63b8ff" d="M393.6,-126.35C377.63,-133.72 357.89,-142.37 339.75,-149 331.34,-152.07 322.19,-155 313.47,-157.59"/>
<polygon fill="#63b8ff" stroke="#63b8ff" points="395.03,-129.55 402.61,-122.14 392.07,-123.21 395.03,-129.55"/>
</a>
</g>
</g>
<!-- Node5 -->
<g id="Node000005" class="node">
<title>Node5</title>
<g id="a_Node000005"><a xlink:href="structSymbolHash.html#a1a1337eb6dd5e949ed42b80b7c1332e7" target="_top" xlink:title=" ">
<polygon fill="white" stroke="#666666" points="333.38,-140 213.88,-140 213.88,-120 333.38,-120 333.38,-140"/>
<text text-anchor="middle" x="273.62" y="-126.5" font-family="Helvetica,sans-Serif" font-size="10.00">SymbolHash::operator()</text>
</a>
</g>
</g>
<!-- Node1&#45;&gt;Node5 -->
<g id="edge5_Node000001_Node000005" class="edge">
<title>Node1&#45;&gt;Node5</title>
<g id="a_edge5_Node000001_Node000005"><a xlink:title=" ">
<path fill="none" stroke="#63b8ff" d="M364.14,-118.73C354.12,-119.99 343.76,-121.29 333.8,-122.55"/>
<polygon fill="#63b8ff" stroke="#63b8ff" points="364.27,-122.24 373.76,-117.52 363.4,-115.29 364.27,-122.24"/>
</a>
</g>
</g>
<!-- Node6 -->
<g id="Node000006" class="node">
<title>Node6</title>
<g id="a_Node000006"><a xlink:href="classNonTerminal.html#a7d040e5e4754f3700921226fbc88fa67" target="_top" xlink:title=" ">
<polygon fill="white" stroke="#666666" points="335.62,-102 211.62,-102 211.62,-82 335.62,-82 335.62,-102"/>
<text text-anchor="middle" x="273.62" y="-88.5" font-family="Helvetica,sans-Serif" font-size="10.00">NonTerminal::operator==</text>
</a>
</g>
</g>
<!-- Node1&#45;&gt;Node6 -->
<g id="edge6_Node000001_Node000006" class="edge">
<title>Node1&#45;&gt;Node6</title>
<g id="a_edge6_Node000001_Node000006"><a xlink:title=" ">
<path fill="none" stroke="#63b8ff" d="M364.11,-103.27C354.81,-102.1 345.22,-100.89 335.93,-99.72"/>
<polygon fill="#63b8ff" stroke="#63b8ff" points="363.4,-106.71 373.76,-104.48 364.27,-99.76 363.4,-106.71"/>
</a>
</g>
</g>
<!-- Node7 -->
<g id="Node000007" class="node">
<title>Node7</title>
<g id="a_Node000007"><a xlink:href="classTerminal.html#ac155612c0d3c3ffc64a043223fa6acca" target="_top" xlink:title=" ">
<polygon fill="white" stroke="#666666" points="326.62,-64 220.62,-64 220.62,-44 326.62,-44 326.62,-64"/>
<text text-anchor="middle" x="273.62" y="-50.5" font-family="Helvetica,sans-Serif" font-size="10.00">Terminal::operator==</text>
</a>
</g>
</g>
<!-- Node1&#45;&gt;Node7 -->
<g id="edge7_Node000001_Node000007" class="edge">
<title>Node1&#45;&gt;Node7</title>
<g id="a_edge7_Node000001_Node000007"><a xlink:title=" ">
<path fill="none" stroke="#63b8ff" d="M393.6,-95.65C377.63,-88.28 357.89,-79.63 339.75,-73 331.34,-69.93 322.19,-67 313.47,-64.41"/>
<polygon fill="#63b8ff" stroke="#63b8ff" points="392.07,-98.79 402.61,-99.86 395.03,-92.45 392.07,-98.79"/>
</a>
</g>
</g>
<!-- Node8 -->
<g id="Node000008" class="node">
<title>Node8</title>
<g id="a_Node000008"><a xlink:href="classParser.html#a65780aca08811f29dda782f145bd7d4d" target="_top" xlink:title=" ">
<polygon fill="white" stroke="#666666" points="310.88,-26 236.38,-26 236.38,-6 310.88,-6 310.88,-26"/>
<text text-anchor="middle" x="273.62" y="-12.5" font-family="Helvetica,sans-Serif" font-size="10.00">Parser::parse</text>
</a>
</g>
</g>
<!-- Node1&#45;&gt;Node8 -->
<g id="edge8_Node000001_Node000008" class="edge">
<title>Node1&#45;&gt;Node8</title>
<g id="a_edge8_Node000001_Node000008"><a xlink:title=" ">
<path fill="none" stroke="#63b8ff" d="M409.12,-92.36C393.04,-75.16 367.04,-50.07 339.75,-35 330.99,-30.16 320.86,-26.44 311.25,-23.63"/>
<polygon fill="#63b8ff" stroke="#63b8ff" points="406.23,-94.39 415.55,-99.43 411.4,-89.68 406.23,-94.39"/>
</a>
</g>
</g>
<!-- Node3 -->
<g id="Node000003" class="node">
<title>Node3</title>
<g id="a_Node000003"><a xlink:href="classParser.html#ac13410cc626574db39d1b39cdf8dfe39" target="_top" xlink:title=" ">
<polygon fill="white" stroke="#666666" points="161.75,-197 82.75,-197 82.75,-177 161.75,-177 161.75,-197"/>
<text text-anchor="middle" x="122.25" y="-183.5" font-family="Helvetica,sans-Serif" font-size="10.00">Parser::Parser</text>
</a>
</g>
</g>
<!-- Node2&#45;&gt;Node3 -->
<g id="edge2_Node000002_Node000003" class="edge">
<title>Node2&#45;&gt;Node3</title>
<g id="a_edge2_Node000002_Node000003"><a xlink:title=" ">
<path fill="none" stroke="#63b8ff" d="M198.3,-196.55C185.83,-194.96 173.35,-193.37 162.24,-191.96"/>
<polygon fill="#63b8ff" stroke="#63b8ff" points="197.85,-200.02 208.21,-197.81 198.73,-193.07 197.85,-200.02"/>
</a>
</g>
</g>
<!-- Node4&#45;&gt;Node3 -->
<g id="edge4_Node000004_Node000003" class="edge">
<title>Node4&#45;&gt;Node3</title>
<g id="a_edge4_Node000004_Node000003"><a xlink:title=" ">
<path fill="none" stroke="#63b8ff" d="M195.89,-177.76C184.17,-179.25 172.52,-180.73 162.09,-182.06"/>
<polygon fill="#63b8ff" stroke="#63b8ff" points="196.13,-181.26 205.61,-176.52 195.24,-174.31 196.13,-181.26"/>
</a>
</g>
</g>
<!-- Node9 -->
<g id="Node000009" class="node">
<title>Node9</title>
<g id="a_Node000009"><a xlink:href="classSQLInterpreter.html#afe6f5863dedf9018fdebd95fad6bed77" target="_top" xlink:title=" ">
<polygon fill="white" stroke="#666666" points="171.5,-32 73,-32 73,0 171.5,0 171.5,-32"/>
<text text-anchor="start" x="81" y="-18.5" font-family="Helvetica,sans-Serif" font-size="10.00">SQLInterpreter::init</text>
<text text-anchor="middle" x="122.25" y="-6.5" font-family="Helvetica,sans-Serif" font-size="10.00">_interpreter</text>
</a>
</g>
</g>
<!-- Node8&#45;&gt;Node9 -->
<g id="edge9_Node000008_Node000009" class="edge">
<title>Node8&#45;&gt;Node9</title>
<g id="a_edge9_Node000008_Node000009"><a xlink:title=" ">
<path fill="none" stroke="#63b8ff" d="M224.76,-16C207.84,-16 188.8,-16 171.83,-16"/>
<polygon fill="#63b8ff" stroke="#63b8ff" points="224.57,-19.5 234.57,-16 224.57,-12.5 224.57,-19.5"/>
</a>
</g>
</g>
<!-- Node10 -->
<g id="Node000010" class="node">
<title>Node10</title>
<g id="a_Node000010"><a xlink:href="Interpreter__main_8cpp.html#a0ddf1224851353fc92bfbff6f499fa97" target="_top" xlink:title=" ">
<polygon fill="white" stroke="#666666" points="37,-26 0,-26 0,-6 37,-6 37,-26"/>
<text text-anchor="middle" x="18.5" y="-12.5" font-family="Helvetica,sans-Serif" font-size="10.00">main</text>
</a>
</g>
</g>
<!-- Node9&#45;&gt;Node10 -->
<g id="edge10_Node000009_Node000010" class="edge">
<title>Node9&#45;&gt;Node10</title>
<g id="a_edge10_Node000009_Node000010"><a xlink:title=" ">
<path fill="none" stroke="#63b8ff" d="M61.48,-16C52.67,-16 44.23,-16 37.25,-16"/>
<polygon fill="#63b8ff" stroke="#63b8ff" points="61.25,-19.5 71.25,-16 61.25,-12.5 61.25,-19.5"/>
</a>
</g>
</g>
</g>
</svg>
</svg>

<style type='text/css'>
<![CDATA[
[data-mouse-over-selected='false'] { opacity: 0.7; }
[data-mouse-over-selected='true']  { opacity: 1.0; }
]]>
</style>
<script type="application/ecmascript"><![CDATA[
document.addEventListener('DOMContentLoaded', (event) => {
  highlightEdges();
  highlightAdjacentNodes();
});
]]></script>
</svg>
