<?xml version="1.0" encoding="UTF-8" standalone="no"?>
<!DOCTYPE svg PUBLIC "-//W3C//DTD SVG 1.1//EN"
 "http://www.w3.org/Graphics/SVG/1.1/DTD/svg11.dtd">
<!-- Generated by graphviz version 12.1.0 (20240811.2233)
 -->
<!-- Title: Lexer::isOperator Pages: 1 -->
<svg width="567pt" height="40pt"
 viewBox="0.00 0.00 567.25 40.00" xmlns="http://www.w3.org/2000/svg" xmlns:xlink="http://www.w3.org/1999/xlink">
<g id="graph0" class="graph" transform="scale(1 1) rotate(0) translate(4 36)">
<title>Lexer::isOperator</title>
<!-- Node1 -->
<g id="Node000001" class="node">
<title>Node1</title>
<g id="a_Node000001"><a xlink:title=" ">
<polygon fill="#999999" stroke="#666666" points="559.25,-26 468.25,-26 468.25,-6 559.25,-6 559.25,-26"/>
<text text-anchor="middle" x="513.75" y="-12.5" font-family="Helvetica,sans-Serif" font-size="10.00">Lexer::isOperator</text>
</a>
</g>
</g>
<!-- Node2 -->
<g id="Node000002" class="node">
<title>Node2</title>
<g id="a_Node000002"><a xlink:href="classLexer.html#aeef65cdc820f48477913e8411df2fcf4" target="_top" xlink:title=" ">
<polygon fill="white" stroke="#666666" points="432.25,-26 326.25,-26 326.25,-6 432.25,-6 432.25,-26"/>
<text text-anchor="middle" x="379.25" y="-12.5" font-family="Helvetica,sans-Serif" font-size="10.00">Lexer::classifyToken</text>
</a>
</g>
</g>
<!-- Node1&#45;&gt;Node2 -->
<g id="edge1_Node000001_Node000002" class="edge">
<title>Node1&#45;&gt;Node2</title>
<g id="a_edge1_Node000001_Node000002"><a xlink:title=" ">
<path fill="none" stroke="#63b8ff" d="M456.41,-16C448.44,-16 440.27,-16 432.38,-16"/>
<polygon fill="#63b8ff" stroke="#63b8ff" points="456.38,-19.5 466.38,-16 456.38,-12.5 456.38,-19.5"/>
</a>
</g>
</g>
<!-- Node3 -->
<g id="Node000003" class="node">
<title>Node3</title>
<g id="a_Node000003"><a xlink:href="classLexer.html#a53ca4097e5fdc3038c07104a07d91bf0" target="_top" xlink:title=" ">
<polygon fill="white" stroke="#666666" points="290.25,-26 207.5,-26 207.5,-6 290.25,-6 290.25,-26"/>
<text text-anchor="middle" x="248.88" y="-12.5" font-family="Helvetica,sans-Serif" font-size="10.00">Lexer::tokenize</text>
</a>
</g>
</g>
<!-- Node2&#45;&gt;Node3 -->
<g id="edge2_Node000002_Node000003" class="edge">
<title>Node2&#45;&gt;Node3</title>
<g id="a_edge2_Node000002_Node000003"><a xlink:title=" ">
<path fill="none" stroke="#63b8ff" d="M314.58,-16C306.43,-16 298.27,-16 290.63,-16"/>
<polygon fill="#63b8ff" stroke="#63b8ff" points="314.52,-19.5 324.52,-16 314.52,-12.5 314.52,-19.5"/>
</a>
</g>
</g>
<!-- Node4 -->
<g id="Node000004" class="node">
<title>Node4</title>
<g id="a_Node000004"><a xlink:href="classSQLInterpreter.html#afe6f5863dedf9018fdebd95fad6bed77" target="_top" xlink:title=" ">
<polygon fill="white" stroke="#666666" points="171.5,-32 73,-32 73,0 171.5,0 171.5,-32"/>
<text text-anchor="start" x="81" y="-18.5" font-family="Helvetica,sans-Serif" font-size="10.00">SQLInterpreter::init</text>
<text text-anchor="middle" x="122.25" y="-6.5" font-family="Helvetica,sans-Serif" font-size="10.00">_interpreter</text>
</a>
</g>
</g>
<!-- Node3&#45;&gt;Node4 -->
<g id="edge3_Node000003_Node000004" class="edge">
<title>Node3&#45;&gt;Node4</title>
<g id="a_edge3_Node000003_Node000004"><a xlink:title=" ">
<path fill="none" stroke="#63b8ff" d="M195.75,-16C187.87,-16 179.77,-16 171.96,-16"/>
<polygon fill="#63b8ff" stroke="#63b8ff" points="195.55,-19.5 205.55,-16 195.55,-12.5 195.55,-19.5"/>
</a>
</g>
</g>
<!-- Node5 -->
<g id="Node000005" class="node">
<title>Node5</title>
<g id="a_Node000005"><a xlink:href="Interpreter__main_8cpp.html#a0ddf1224851353fc92bfbff6f499fa97" target="_top" xlink:title=" ">
<polygon fill="white" stroke="#666666" points="37,-26 0,-26 0,-6 37,-6 37,-26"/>
<text text-anchor="middle" x="18.5" y="-12.5" font-family="Helvetica,sans-Serif" font-size="10.00">main</text>
</a>
</g>
</g>
<!-- Node4&#45;&gt;Node5 -->
<g id="edge4_Node000004_Node000005" class="edge">
<title>Node4&#45;&gt;Node5</title>
<g id="a_edge4_Node000004_Node000005"><a xlink:title=" ">
<path fill="none" stroke="#63b8ff" d="M61.48,-16C52.67,-16 44.23,-16 37.25,-16"/>
<polygon fill="#63b8ff" stroke="#63b8ff" points="61.25,-19.5 71.25,-16 61.25,-12.5 61.25,-19.5"/>
</a>
</g>
</g>
</g>
</svg>
