<?xml version="1.0" encoding="UTF-8" standalone="no"?>
<!DOCTYPE svg PUBLIC "-//W3C//DTD SVG 1.1//EN"
 "http://www.w3.org/Graphics/SVG/1.1/DTD/svg11.dtd">
<!-- Generated by graphviz version 12.1.0 (20240811.2233)
 -->
<!-- Title: Symbol Pages: 1 -->
<svg width="150pt" height="84pt"
 viewBox="0.00 0.00 149.75 84.00" xmlns="http://www.w3.org/2000/svg" xmlns:xlink="http://www.w3.org/1999/xlink">
<g id="graph0" class="graph" transform="scale(1 1) rotate(0) translate(4 80)">
<title>Symbol</title>
<!-- Node1 -->
<g id="Node000001" class="node">
<title>Node1</title>
<g id="a_Node000001"><a xlink:title=" ">
<polygon fill="#999999" stroke="#666666" points="99.88,-76 50.88,-76 50.88,-56 99.88,-56 99.88,-76"/>
<text text-anchor="middle" x="75.38" y="-62.5" font-family="Helvetica,sans-Serif" font-size="10.00">Symbol</text>
</a>
</g>
</g>
<!-- Node2 -->
<g id="Node000002" class="node">
<title>Node2</title>
<g id="a_Node000002"><a xlink:href="classNonTerminal.html" target="_top" xlink:title=" ">
<polygon fill="white" stroke="#666666" points="70.75,-20 0,-20 0,0 70.75,0 70.75,-20"/>
<text text-anchor="middle" x="35.38" y="-6.5" font-family="Helvetica,sans-Serif" font-size="10.00">NonTerminal</text>
</a>
</g>
</g>
<!-- Node1&#45;&gt;Node2 -->
<g id="edge1_Node000001_Node000002" class="edge">
<title>Node1&#45;&gt;Node2</title>
<g id="a_edge1_Node000001_Node000002"><a xlink:title=" ">
<path fill="none" stroke="#63b8ff" d="M61.62,-46.44C55.09,-37.62 47.57,-27.47 42.26,-20.3"/>
<polygon fill="#63b8ff" stroke="#63b8ff" points="58.74,-48.43 67.51,-54.38 64.37,-44.26 58.74,-48.43"/>
</a>
</g>
</g>
<!-- Node3 -->
<g id="Node000003" class="node">
<title>Node3</title>
<g id="a_Node000003"><a xlink:href="classTerminal.html" target="_top" xlink:title=" ">
<polygon fill="white" stroke="#666666" points="141.75,-20 89,-20 89,0 141.75,0 141.75,-20"/>
<text text-anchor="middle" x="115.38" y="-6.5" font-family="Helvetica,sans-Serif" font-size="10.00">Terminal</text>
</a>
</g>
</g>
<!-- Node1&#45;&gt;Node3 -->
<g id="edge2_Node000001_Node000003" class="edge">
<title>Node1&#45;&gt;Node3</title>
<g id="a_edge2_Node000001_Node000003"><a xlink:title=" ">
<path fill="none" stroke="#63b8ff" d="M89.13,-46.44C95.66,-37.62 103.18,-27.47 108.49,-20.3"/>
<polygon fill="#63b8ff" stroke="#63b8ff" points="86.38,-44.26 83.24,-54.38 92.01,-48.43 86.38,-44.26"/>
</a>
</g>
</g>
</g>
</svg>
