<?xml version="1.0" encoding="UTF-8" standalone="no"?>
<!DOCTYPE svg PUBLIC "-//W3C//DTD SVG 1.1//EN"
 "http://www.w3.org/Graphics/SVG/1.1/DTD/svg11.dtd">
<!-- Generated by graphviz version 12.1.0 (20240811.2233)
 -->
<!-- Title: Parser::Parser Pages: 1 -->
<svg width="393pt" height="142pt"
 viewBox="0.00 0.00 392.75 142.00" xmlns="http://www.w3.org/2000/svg" xmlns:xlink="http://www.w3.org/1999/xlink">

<svg id="main" version="1.1" xmlns="http://www.w3.org/2000/svg" xmlns:xlink="http://www.w3.org/1999/xlink" xml:space="preserve">

<style type="text/css"><![CDATA[
.node, .edge {opacity: 0.7;}
.node.selected, .edge.selected {opacity: 1;}
.edge:hover path { stroke: red; }
.edge:hover polygon { stroke: red; fill: red; }
]]></style>
<script type="application/ecmascript" xlink:href="svg.min.js"/>
<svg id="graph" class="graph">
<g id="graph0" class="graph" transform="scale(1 1) rotate(0) translate(4 138)">
<title>Parser::Parser</title>
<!-- Node1 -->
<g id="Node000001" class="node">
<title>Node1</title>
<g id="a_Node000001"><a xlink:title=" ">
<polygon fill="#999999" stroke="#666666" points="79,-77 0,-77 0,-57 79,-57 79,-77"/>
<text text-anchor="middle" x="39.5" y="-63.5" font-family="Helvetica,sans-Serif" font-size="10.00">Parser::Parser</text>
</a>
</g>
</g>
<!-- Node2 -->
<g id="Node000002" class="node">
<title>Node2</title>
<g id="a_Node000002"><a xlink:href="classParser.html#ae656481d980555a17d639fe063fd436a" target="_top" xlink:title=" ">
<polygon fill="white" stroke="#666666" points="234.88,-134 127.38,-134 127.38,-114 234.88,-114 234.88,-134"/>
<text text-anchor="middle" x="181.12" y="-120.5" font-family="Helvetica,sans-Serif" font-size="10.00">Parser::computeFirst</text>
</a>
</g>
</g>
<!-- Node1&#45;&gt;Node2 -->
<g id="edge1_Node000001_Node000002" class="edge">
<title>Node1&#45;&gt;Node2</title>
<g id="a_edge1_Node000001_Node000002"><a xlink:title=" ">
<path fill="none" stroke="#63b8ff" d="M58.43,-77.35C73.25,-85.61 95.03,-97.07 115,-105 119.56,-106.81 124.35,-108.53 129.19,-110.15"/>
<polygon fill="#63b8ff" stroke="#63b8ff" points="127.74,-113.36 138.33,-113.05 129.86,-106.69 127.74,-113.36"/>
</a>
</g>
</g>
<!-- Node3 -->
<g id="Node000003" class="node">
<title>Node3</title>
<g id="a_Node000003"><a xlink:href="classParser.html#ae1dba1e4b94224b696e2d25cc39df2c7" target="_top" xlink:title=" ">
<polygon fill="white" stroke="#666666" points="239.38,-96 122.88,-96 122.88,-76 239.38,-76 239.38,-96"/>
<text text-anchor="middle" x="181.12" y="-82.5" font-family="Helvetica,sans-Serif" font-size="10.00">Parser::computeFollow</text>
</a>
</g>
</g>
<!-- Node1&#45;&gt;Node3 -->
<g id="edge2_Node000001_Node000003" class="edge">
<title>Node1&#45;&gt;Node3</title>
<g id="a_edge2_Node000001_Node000003"><a xlink:title=" ">
<path fill="none" stroke="#63b8ff" d="M79.39,-72.29C89.27,-73.64 100.19,-75.12 111.08,-76.61"/>
<polygon fill="#63b8ff" stroke="#63b8ff" points="110.5,-80.06 120.88,-77.94 111.45,-73.12 110.5,-80.06"/>
</a>
</g>
</g>
<!-- Node4 -->
<g id="Node000004" class="node">
<title>Node4</title>
<g id="a_Node000004"><a xlink:href="classParser.html#ae3862281fb56fea407bbd332c5bebe10" target="_top" xlink:title=" ">
<polygon fill="white" stroke="#666666" points="244.62,-58 117.62,-58 117.62,-38 244.62,-38 244.62,-58"/>
<text text-anchor="middle" x="181.12" y="-44.5" font-family="Helvetica,sans-Serif" font-size="10.00">Parser::computeLL1Table</text>
</a>
</g>
</g>
<!-- Node1&#45;&gt;Node4 -->
<g id="edge3_Node000001_Node000004" class="edge">
<title>Node1&#45;&gt;Node4</title>
<g id="a_edge3_Node000001_Node000004"><a xlink:title=" ">
<path fill="none" stroke="#63b8ff" d="M79.39,-61.71C87.77,-60.57 96.89,-59.33 106.11,-58.07"/>
<polygon fill="#63b8ff" stroke="#63b8ff" points="106.42,-61.56 115.86,-56.75 105.47,-54.63 106.42,-61.56"/>
</a>
</g>
</g>
<!-- Node6 -->
<g id="Node000006" class="node">
<title>Node6</title>
<g id="a_Node000006"><a xlink:href="classParser.html#a271f328741d9e36146ed32bcb382d9a8" target="_top" xlink:title=" ">
<polygon fill="white" stroke="#666666" points="247.25,-20 115,-20 115,0 247.25,0 247.25,-20"/>
<text text-anchor="middle" x="181.12" y="-6.5" font-family="Helvetica,sans-Serif" font-size="10.00">Parser::leftFactorGrammar</text>
</a>
</g>
</g>
<!-- Node1&#45;&gt;Node6 -->
<g id="edge5_Node000001_Node000006" class="edge">
<title>Node1&#45;&gt;Node6</title>
<g id="a_edge5_Node000001_Node000006"><a xlink:title=" ">
<path fill="none" stroke="#63b8ff" d="M58.43,-56.65C73.25,-48.39 95.03,-36.93 115,-29 119.56,-27.19 124.35,-25.47 129.19,-23.85"/>
<polygon fill="#63b8ff" stroke="#63b8ff" points="129.86,-27.31 138.33,-20.95 127.74,-20.64 129.86,-27.31"/>
</a>
</g>
</g>
<!-- Node5 -->
<g id="Node000005" class="node">
<title>Node5</title>
<g id="a_Node000005"><a xlink:href="classSymbol.html#a626bdd3948ea431fa1281416e0d012d5" target="_top" xlink:title=" ">
<polygon fill="white" stroke="#666666" points="384.75,-39 283.25,-39 283.25,-19 384.75,-19 384.75,-39"/>
<text text-anchor="middle" x="334" y="-25.5" font-family="Helvetica,sans-Serif" font-size="10.00">Symbol::getSymbol</text>
</a>
</g>
</g>
<!-- Node4&#45;&gt;Node5 -->
<g id="edge4_Node000004_Node000005" class="edge">
<title>Node4&#45;&gt;Node5</title>
<g id="a_edge4_Node000004_Node000005"><a xlink:title=" ">
<path fill="none" stroke="#63b8ff" d="M244.8,-40.11C253.79,-38.97 263.04,-37.81 272,-36.68"/>
<polygon fill="#63b8ff" stroke="#63b8ff" points="272.17,-40.19 281.66,-35.47 271.3,-33.24 272.17,-40.19"/>
</a>
</g>
</g>
<!-- Node6&#45;&gt;Node5 -->
<g id="edge6_Node000006_Node000005" class="edge">
<title>Node6&#45;&gt;Node5</title>
<g id="a_edge6_Node000006_Node000005"><a xlink:title=" ">
<path fill="none" stroke="#63b8ff" d="M247.42,-18.22C255.54,-19.25 263.82,-20.29 271.88,-21.3"/>
<polygon fill="#63b8ff" stroke="#63b8ff" points="271.21,-24.75 281.57,-22.52 272.08,-17.8 271.21,-24.75"/>
</a>
</g>
</g>
</g>
</svg>
</svg>

<style type='text/css'>
<![CDATA[
[data-mouse-over-selected='false'] { opacity: 0.7; }
[data-mouse-over-selected='true']  { opacity: 1.0; }
]]>
</style>
<script type="application/ecmascript"><![CDATA[
document.addEventListener('DOMContentLoaded', (event) => {
  highlightEdges();
  highlightAdjacentNodes();
});
]]></script>
</svg>
