<?xml version="1.0" encoding="UTF-8" standalone="no"?>
<!DOCTYPE svg PUBLIC "-//W3C//DTD SVG 1.1//EN"
 "http://www.w3.org/Graphics/SVG/1.1/DTD/svg11.dtd">
<!-- Generated by graphviz version 12.1.0 (20240811.2233)
 -->
<!-- Title: SQLInterpreter::init_interpreter Pages: 1 -->
<!--zoomable 351 -->

<svg id="main" version="1.1" xmlns="http://www.w3.org/2000/svg" xmlns:xlink="http://www.w3.org/1999/xlink" xml:space="preserve" onload="init(evt)">

<style type="text/css"><![CDATA[
.node, .edge {opacity: 0.7;}
.node.selected, .edge.selected {opacity: 1;}
.edge:hover path { stroke: red; }
.edge:hover polygon { stroke: red; fill: red; }
]]></style>

<defs>
  <circle id="rim" cx="0" cy="0" r="7"/>
  <circle id="rim2" cx="0" cy="0" r="3.5"/>
  <g id="zoomPlus">
    <use xlink:href="#rim" fill="#404040"><set attributeName="fill" to="#808080" begin="zoomplus.mouseover" end="zoomplus.mouseout"/></use>
    <path d="M-4,0h8M0,-4v8" fill="none" stroke="white" stroke-width="1.5" pointer-events="none"/>
  </g>
  <g id="zoomMin">
    <use xlink:href="#rim" fill="#404040"><set attributeName="fill" to="#808080" begin="zoomminus.mouseover" end="zoomminus.mouseout"/></use>
    <path d="M-4,0h8" fill="none" stroke="white" stroke-width="1.5" pointer-events="none"/>
  </g>
  <g id="arrowUp" transform="translate(30 24)">
    <use xlink:href="#rim"/>
    <path pointer-events="none" fill="none" stroke="white" stroke-width="1.5" d="M0,-3.0v7 M-2.5,-0.5L0,-3.0L2.5,-0.5"/>
  </g>
  <g id="arrowRight" transform="rotate(90) translate(36 -43)">
    <use xlink:href="#rim"/>
    <path pointer-events="none" fill="none" stroke="white" stroke-width="1.5" d="M0,-3.0v7 M-2.5,-0.5L0,-3.0L2.5,-0.5"/>
  </g>
  <g id="arrowDown" transform="rotate(180) translate(-30 -48)">
    <use xlink:href="#rim"/>
    <path pointer-events="none" fill="none" stroke="white" stroke-width="1.5" d="M0,-3.0v7 M-2.5,-0.5L0,-3.0L2.5,-0.5"/>
  </g>
  <g id="arrowLeft" transform="rotate(270) translate(-36 17)">
    <use xlink:href="#rim"/>
    <path pointer-events="none" fill="none" stroke="white" stroke-width="1.5" d="M0,-3.0v7 M-2.5,-0.5L0,-3.0L2.5,-0.5"/>
  </g>
  <g id="resetDef">
    <use xlink:href="#rim2" fill="#404040"><set attributeName="fill" to="#808080" begin="reset.mouseover" end="reset.mouseout"/></use>
  </g>
</defs>
<script type="application/ecmascript">
var viewWidth = 578;
var viewHeight = 351;
var sectionId = 'dynsection-1';
</script>
<script type="application/ecmascript" xlink:href="svg.min.js"/>
<svg id="graph" class="graph">
<g id="viewport">
<title>SQLInterpreter::init_interpreter</title>
<!-- Node1 -->
<g id="Node000001" class="node">
<title>Node1</title>
<g id="a_Node000001"><a xlink:title=" ">
<polygon fill="#999999" stroke="#666666" points="98.5,-178 0,-178 0,-146 98.5,-146 98.5,-178"/>
<text text-anchor="start" x="8" y="-164.5" font-family="Helvetica,sans-Serif" font-size="10.00">SQLInterpreter::init</text>
<text text-anchor="middle" x="49.25" y="-152.5" font-family="Helvetica,sans-Serif" font-size="10.00">_interpreter</text>
</a>
</g>
</g>
<!-- Node2 -->
<g id="Node000002" class="node">
<title>Node2</title>
<g id="a_Node000002"><a xlink:href="classParser.html#a65780aca08811f29dda782f145bd7d4d" target="_top" xlink:title=" ">
<polygon fill="white" stroke="#666666" points="242.38,-305 167.88,-305 167.88,-285 242.38,-285 242.38,-305"/>
<text text-anchor="middle" x="205.12" y="-291.5" font-family="Helvetica,sans-Serif" font-size="10.00">Parser::parse</text>
</a>
</g>
</g>
<!-- Node1&#45;&gt;Node2 -->
<g id="edge1_Node000001_Node000002" class="edge">
<title>Node1&#45;&gt;Node2</title>
<g id="a_edge1_Node000001_Node000002"><a xlink:title=" ">
<path fill="none" stroke="#63b8ff" d="M57.83,-178.32C70.26,-203.24 97.34,-250.56 134.5,-276 141.11,-280.52 148.75,-283.97 156.5,-286.6"/>
<polygon fill="#63b8ff" stroke="#63b8ff" points="155.41,-289.93 165.99,-289.37 157.37,-283.21 155.41,-289.93"/>
</a>
</g>
</g>
<!-- Node6 -->
<g id="Node000006" class="node">
<title>Node6</title>
<g id="a_Node000006"><a xlink:href="classParser.html#a2dc265a26604c6829bac6fd93daa14ef" target="_top" xlink:title=" ">
<polygon fill="white" stroke="#666666" points="272.38,-267 137.88,-267 137.88,-247 272.38,-247 272.38,-267"/>
<text text-anchor="middle" x="205.12" y="-253.5" font-family="Helvetica,sans-Serif" font-size="10.00">Parser::printFirstAndFollow</text>
</a>
</g>
</g>
<!-- Node1&#45;&gt;Node6 -->
<g id="edge5_Node000001_Node000006" class="edge">
<title>Node1&#45;&gt;Node6</title>
<g id="a_edge5_Node000001_Node000006"><a xlink:title=" ">
<path fill="none" stroke="#63b8ff" d="M64.09,-178.39C79.55,-195.67 106.15,-222.51 134.5,-238 137.54,-239.66 140.73,-241.18 144,-242.58"/>
<polygon fill="#63b8ff" stroke="#63b8ff" points="142.67,-245.82 153.26,-246.08 145.15,-239.27 142.67,-245.82"/>
</a>
</g>
</g>
<!-- Node7 -->
<g id="Node000007" class="node">
<title>Node7</title>
<g id="a_Node000007"><a xlink:href="classParser.html#aaa59ab12d2363ede9c8f72ff8a32ce88" target="_top" xlink:title=" ">
<polygon fill="white" stroke="#666666" points="260,-229 150.25,-229 150.25,-209 260,-209 260,-229"/>
<text text-anchor="middle" x="205.12" y="-215.5" font-family="Helvetica,sans-Serif" font-size="10.00">Parser::printGrammar</text>
</a>
</g>
</g>
<!-- Node1&#45;&gt;Node7 -->
<g id="edge6_Node000001_Node000007" class="edge">
<title>Node1&#45;&gt;Node7</title>
<g id="a_edge6_Node000001_Node000007"><a xlink:title=" ">
<path fill="none" stroke="#63b8ff" d="M83.37,-178.39C98.7,-185.6 117.29,-193.81 134.5,-200 139.82,-201.91 145.42,-203.74 151.05,-205.45"/>
<polygon fill="#63b8ff" stroke="#63b8ff" points="149.79,-208.73 160.37,-208.18 151.75,-202.01 149.79,-208.73"/>
</a>
</g>
</g>
<!-- Node8 -->
<g id="Node000008" class="node">
<title>Node8</title>
<g id="a_Node000008"><a xlink:href="classParser.html#a7ccefd47273ea741d7350049eac417ff" target="_top" xlink:title=" ">
<polygon fill="white" stroke="#666666" points="259.25,-191 151,-191 151,-171 259.25,-171 259.25,-191"/>
<text text-anchor="middle" x="205.12" y="-177.5" font-family="Helvetica,sans-Serif" font-size="10.00">Parser::printLL1Table</text>
</a>
</g>
</g>
<!-- Node1&#45;&gt;Node8 -->
<g id="edge7_Node000001_Node000008" class="edge">
<title>Node1&#45;&gt;Node8</title>
<g id="a_edge7_Node000001_Node000008"><a xlink:title=" ">
<path fill="none" stroke="#63b8ff" d="M98.94,-168.01C111.8,-169.6 125.89,-171.34 139.45,-173.01"/>
<polygon fill="#63b8ff" stroke="#63b8ff" points="138.83,-176.46 149.18,-174.22 139.69,-169.52 138.83,-176.46"/>
</a>
</g>
</g>
<!-- Node9 -->
<g id="Node000009" class="node">
<title>Node9</title>
<g id="a_Node000009"><a xlink:href="classSQLInterpreter.html#a45b3151cc29597f7657ab93c2c0a4dde" target="_top" xlink:title=" ">
<polygon fill="white" stroke="#666666" points="273.12,-153 137.12,-153 137.12,-133 273.12,-133 273.12,-153"/>
<text text-anchor="middle" x="205.12" y="-139.5" font-family="Helvetica,sans-Serif" font-size="10.00">SQLInterpreter::printTokens</text>
</a>
</g>
</g>
<!-- Node1&#45;&gt;Node9 -->
<g id="edge8_Node000001_Node000009" class="edge">
<title>Node1&#45;&gt;Node9</title>
<g id="a_edge8_Node000001_Node000009"><a xlink:title=" ">
<path fill="none" stroke="#63b8ff" d="M98.94,-155.99C107.36,-154.95 116.3,-153.84 125.28,-152.74"/>
<polygon fill="#63b8ff" stroke="#63b8ff" points="125.64,-156.22 135.13,-151.52 124.78,-149.27 125.64,-156.22"/>
</a>
</g>
</g>
<!-- Node10 -->
<g id="Node000010" class="node">
<title>Node10</title>
<g id="a_Node000010"><a xlink:href="classLexer.html#a53ca4097e5fdc3038c07104a07d91bf0" target="_top" xlink:title=" ">
<polygon fill="white" stroke="#666666" points="246.5,-115 163.75,-115 163.75,-95 246.5,-95 246.5,-115"/>
<text text-anchor="middle" x="205.12" y="-101.5" font-family="Helvetica,sans-Serif" font-size="10.00">Lexer::tokenize</text>
</a>
</g>
</g>
<!-- Node1&#45;&gt;Node10 -->
<g id="edge9_Node000001_Node000010" class="edge">
<title>Node1&#45;&gt;Node10</title>
<g id="a_edge9_Node000001_Node000010"><a xlink:title=" ">
<path fill="none" stroke="#63b8ff" d="M83.37,-145.61C98.7,-138.4 117.29,-130.19 134.5,-124 140.25,-121.93 146.33,-119.97 152.42,-118.13"/>
<polygon fill="#63b8ff" stroke="#63b8ff" points="153.2,-121.55 161.84,-115.41 151.26,-114.82 153.2,-121.55"/>
</a>
</g>
</g>
<!-- Node18 -->
<g id="Node000018" class="node">
<title>Node18</title>
<g id="a_Node000018"><a xlink:href="classSQLInterpreter.html#a2c4a74797e8f4b0bf25c50fcafe6716d" target="_top" xlink:title=" ">
<polygon fill="white" stroke="#666666" points="275.75,-77 134.5,-77 134.5,-57 275.75,-57 275.75,-77"/>
<text text-anchor="middle" x="205.12" y="-63.5" font-family="Helvetica,sans-Serif" font-size="10.00">SQLInterpreter::toLowercase</text>
</a>
</g>
</g>
<!-- Node1&#45;&gt;Node18 -->
<g id="edge17_Node000001_Node000018" class="edge">
<title>Node1&#45;&gt;Node18</title>
<g id="a_edge17_Node000001_Node000018"><a xlink:title=" ">
<path fill="none" stroke="#63b8ff" d="M64.09,-145.61C79.55,-128.33 106.15,-101.49 134.5,-86 137.54,-84.34 140.73,-82.82 144,-81.42"/>
<polygon fill="#63b8ff" stroke="#63b8ff" points="145.15,-84.73 153.26,-77.92 142.67,-78.18 145.15,-84.73"/>
</a>
</g>
</g>
<!-- Node19 -->
<g id="Node000019" class="node">
<title>Node19</title>
<g id="a_Node000019"><a xlink:href="classSQLInterpreter.html#a2626911955392aceda1ce54244faa95b" target="_top" xlink:title=" ">
<polygon fill="white" stroke="#666666" points="256.25,-39 154,-39 154,-19 256.25,-19 256.25,-39"/>
<text text-anchor="middle" x="205.12" y="-25.5" font-family="Helvetica,sans-Serif" font-size="10.00">SQLInterpreter::trim</text>
</a>
</g>
</g>
<!-- Node1&#45;&gt;Node19 -->
<g id="edge18_Node000001_Node000019" class="edge">
<title>Node1&#45;&gt;Node19</title>
<g id="a_edge18_Node000001_Node000019"><a xlink:title=" ">
<path fill="none" stroke="#63b8ff" d="M57.83,-145.68C70.26,-120.76 97.34,-73.44 134.5,-48 137.21,-46.14 140.1,-44.46 143.1,-42.95"/>
<polygon fill="#63b8ff" stroke="#63b8ff" points="144.45,-46.18 152.25,-39.01 141.68,-39.75 144.45,-46.18"/>
</a>
</g>
</g>
<!-- Node3 -->
<g id="Node000003" class="node">
<title>Node3</title>
<g id="a_Node000003"><a xlink:href="classToken.html#ab2b08d2198a5a68cf098bbb692f8342f" target="_top" xlink:title=" ">
<polygon fill="white" stroke="#666666" points="412.88,-343 316.62,-343 316.62,-323 412.88,-323 412.88,-343"/>
<text text-anchor="middle" x="364.75" y="-329.5" font-family="Helvetica,sans-Serif" font-size="10.00">Token::getLexeme</text>
</a>
</g>
</g>
<!-- Node2&#45;&gt;Node3 -->
<g id="edge2_Node000002_Node000003" class="edge">
<title>Node2&#45;&gt;Node3</title>
<g id="a_edge2_Node000002_Node000003"><a xlink:title=" ">
<path fill="none" stroke="#63b8ff" d="M242.68,-303.81C262.52,-308.6 287.43,-314.6 309.49,-319.92"/>
<polygon fill="#63b8ff" stroke="#63b8ff" points="308.38,-323.25 318.92,-322.19 310.02,-316.45 308.38,-323.25"/>
</a>
</g>
</g>
<!-- Node4 -->
<g id="Node000004" class="node">
<title>Node4</title>
<g id="a_Node000004"><a xlink:href="classSymbol.html#a626bdd3948ea431fa1281416e0d012d5" target="_top" xlink:title=" ">
<polygon fill="white" stroke="#666666" points="415.5,-305 314,-305 314,-285 415.5,-285 415.5,-305"/>
<text text-anchor="middle" x="364.75" y="-291.5" font-family="Helvetica,sans-Serif" font-size="10.00">Symbol::getSymbol</text>
</a>
</g>
</g>
<!-- Node2&#45;&gt;Node4 -->
<g id="edge3_Node000002_Node000004" class="edge">
<title>Node2&#45;&gt;Node4</title>
<g id="a_edge3_Node000002_Node000004"><a xlink:title=" ">
<path fill="none" stroke="#63b8ff" d="M242.68,-295C260.4,-295 282.17,-295 302.34,-295"/>
<polygon fill="#63b8ff" stroke="#63b8ff" points="302.15,-298.5 312.15,-295 302.15,-291.5 302.15,-298.5"/>
</a>
</g>
</g>
<!-- Node5 -->
<g id="Node000005" class="node">
<title>Node5</title>
<g id="a_Node000005"><a xlink:href="classToken.html#aeda1c29c63c88e423312128306393ebb" target="_top" xlink:title=" ">
<polygon fill="white" stroke="#666666" points="406.12,-267 323.38,-267 323.38,-247 406.12,-247 406.12,-267"/>
<text text-anchor="middle" x="364.75" y="-253.5" font-family="Helvetica,sans-Serif" font-size="10.00">Token::getType</text>
</a>
</g>
</g>
<!-- Node2&#45;&gt;Node5 -->
<g id="edge4_Node000002_Node000005" class="edge">
<title>Node2&#45;&gt;Node5</title>
<g id="a_edge4_Node000002_Node000005"><a xlink:title=" ">
<path fill="none" stroke="#63b8ff" d="M242.68,-286.19C263.22,-281.23 289.2,-274.97 311.82,-269.52"/>
<polygon fill="#63b8ff" stroke="#63b8ff" points="312.58,-272.94 321.48,-267.19 310.94,-266.13 312.58,-272.94"/>
</a>
</g>
</g>
<!-- Node11 -->
<g id="Node000011" class="node">
<title>Node11</title>
<g id="a_Node000011"><a xlink:href="classLexer.html#aeef65cdc820f48477913e8411df2fcf4" target="_top" xlink:title=" ">
<polygon fill="white" stroke="#666666" points="417.75,-115 311.75,-115 311.75,-95 417.75,-95 417.75,-115"/>
<text text-anchor="middle" x="364.75" y="-101.5" font-family="Helvetica,sans-Serif" font-size="10.00">Lexer::classifyToken</text>
</a>
</g>
</g>
<!-- Node10&#45;&gt;Node11 -->
<g id="edge10_Node000010_Node000011" class="edge">
<title>Node10&#45;&gt;Node11</title>
<g id="a_edge10_Node000010_Node000011"><a xlink:title=" ">
<path fill="none" stroke="#63b8ff" d="M246.72,-105C262.96,-105 282.05,-105 300.06,-105"/>
<polygon fill="#63b8ff" stroke="#63b8ff" points="299.87,-108.5 309.87,-105 299.87,-101.5 299.87,-108.5"/>
</a>
</g>
</g>
<!-- Node12 -->
<g id="Node000012" class="node">
<title>Node12</title>
<g id="a_Node000012"><a xlink:href="classLexer.html#a7d2a073525f3dafc49701dc64fb8455a" target="_top" xlink:title=" ">
<polygon fill="white" stroke="#666666" points="544.38,-210 479.62,-210 479.62,-190 544.38,-190 544.38,-210"/>
<text text-anchor="middle" x="512" y="-196.5" font-family="Helvetica,sans-Serif" font-size="10.00">Lexer::isAll</text>
</a>
</g>
</g>
<!-- Node11&#45;&gt;Node12 -->
<g id="edge11_Node000011_Node000012" class="edge">
<title>Node11&#45;&gt;Node12</title>
<g id="a_edge11_Node000011_Node000012"><a xlink:title=" ">
<path fill="none" stroke="#63b8ff" d="M375.05,-115.3C390.12,-131.42 421.45,-162.66 453.75,-181 458.4,-183.64 463.47,-185.98 468.61,-188.04"/>
<polygon fill="#63b8ff" stroke="#63b8ff" points="467.14,-191.23 477.73,-191.36 469.53,-184.65 467.14,-191.23"/>
</a>
</g>
</g>
<!-- Node13 -->
<g id="Node000013" class="node">
<title>Node13</title>
<g id="a_Node000013"><a xlink:href="classLexer.html#acc2c15fd3f25cbc9e0fba3946ddfe1fe" target="_top" xlink:title=" ">
<polygon fill="white" stroke="#666666" points="557.5,-172 466.5,-172 466.5,-152 557.5,-152 557.5,-172"/>
<text text-anchor="middle" x="512" y="-158.5" font-family="Helvetica,sans-Serif" font-size="10.00">Lexer::isIdentifier</text>
</a>
</g>
</g>
<!-- Node11&#45;&gt;Node13 -->
<g id="edge12_Node000011_Node000013" class="edge">
<title>Node11&#45;&gt;Node13</title>
<g id="a_edge12_Node000011_Node000013"><a xlink:title=" ">
<path fill="none" stroke="#63b8ff" d="M388.32,-115.39C405.96,-123.36 431.2,-134.41 453.75,-143 458.1,-144.66 462.66,-146.31 467.24,-147.91"/>
<polygon fill="#63b8ff" stroke="#63b8ff" points="465.8,-151.12 476.4,-151.05 468.07,-144.5 465.8,-151.12"/>
</a>
</g>
</g>
<!-- Node14 -->
<g id="Node000014" class="node">
<title>Node14</title>
<g id="a_Node000014"><a xlink:href="classLexer.html#a4546b85fe75e0152a3cba759d18f240d" target="_top" xlink:title=" ">
<polygon fill="white" stroke="#666666" points="557.88,-134 466.12,-134 466.12,-114 557.88,-114 557.88,-134"/>
<text text-anchor="middle" x="512" y="-120.5" font-family="Helvetica,sans-Serif" font-size="10.00">Lexer::isKeyword</text>
</a>
</g>
</g>
<!-- Node11&#45;&gt;Node14 -->
<g id="edge13_Node000011_Node000014" class="edge">
<title>Node11&#45;&gt;Node14</title>
<g id="a_edge13_Node000011_Node000014"><a xlink:title=" ">
<path fill="none" stroke="#63b8ff" d="M418.19,-111.86C430.01,-113.41 442.61,-115.05 454.59,-116.62"/>
<polygon fill="#63b8ff" stroke="#63b8ff" points="453.97,-120.07 464.34,-117.9 454.88,-113.13 453.97,-120.07"/>
</a>
</g>
</g>
<!-- Node15 -->
<g id="Node000015" class="node">
<title>Node15</title>
<g id="a_Node000015"><a xlink:href="classLexer.html#a6c8157cad4951a2f24c763ab5645e693" target="_top" xlink:title=" ">
<polygon fill="white" stroke="#666666" points="570.25,-96 453.75,-96 453.75,-76 570.25,-76 570.25,-96"/>
<text text-anchor="middle" x="512" y="-82.5" font-family="Helvetica,sans-Serif" font-size="10.00">Lexer::isNumericLiteral</text>
</a>
</g>
</g>
<!-- Node11&#45;&gt;Node15 -->
<g id="edge14_Node000011_Node000015" class="edge">
<title>Node11&#45;&gt;Node15</title>
<g id="a_edge14_Node000011_Node000015"><a xlink:title=" ">
<path fill="none" stroke="#63b8ff" d="M418.19,-98.14C426.03,-97.11 434.22,-96.04 442.33,-94.98"/>
<polygon fill="#63b8ff" stroke="#63b8ff" points="442.76,-98.46 452.22,-93.69 441.85,-91.52 442.76,-98.46"/>
</a>
</g>
</g>
<!-- Node16 -->
<g id="Node000016" class="node">
<title>Node16</title>
<g id="a_Node000016"><a xlink:href="classLexer.html#af0d792d931a1c5c168bc224b5218bdb8" target="_top" xlink:title=" ">
<polygon fill="white" stroke="#666666" points="557.5,-58 466.5,-58 466.5,-38 557.5,-38 557.5,-58"/>
<text text-anchor="middle" x="512" y="-44.5" font-family="Helvetica,sans-Serif" font-size="10.00">Lexer::isOperator</text>
</a>
</g>
</g>
<!-- Node11&#45;&gt;Node16 -->
<g id="edge15_Node000011_Node000016" class="edge">
<title>Node11&#45;&gt;Node16</title>
<g id="a_edge15_Node000011_Node000016"><a xlink:title=" ">
<path fill="none" stroke="#63b8ff" d="M388.32,-94.61C405.96,-86.64 431.2,-75.59 453.75,-67 458.1,-65.34 462.66,-63.69 467.24,-62.09"/>
<polygon fill="#63b8ff" stroke="#63b8ff" points="468.07,-65.5 476.4,-58.95 465.8,-58.88 468.07,-65.5"/>
</a>
</g>
</g>
<!-- Node17 -->
<g id="Node000017" class="node">
<title>Node17</title>
<g id="a_Node000017"><a xlink:href="classLexer.html#aed757d18850c5bfe53b6b0fa65a07587" target="_top" xlink:title=" ">
<polygon fill="white" stroke="#666666" points="564.62,-20 459.38,-20 459.38,0 564.62,0 564.62,-20"/>
<text text-anchor="middle" x="512" y="-6.5" font-family="Helvetica,sans-Serif" font-size="10.00">Lexer::isStringLiteral</text>
</a>
</g>
</g>
<!-- Node11&#45;&gt;Node17 -->
<g id="edge16_Node000011_Node000017" class="edge">
<title>Node11&#45;&gt;Node17</title>
<g id="a_edge16_Node000011_Node000017"><a xlink:title=" ">
<path fill="none" stroke="#63b8ff" d="M375.05,-94.7C390.12,-78.58 421.45,-47.34 453.75,-29 456.39,-27.5 459.17,-26.1 462.02,-24.79"/>
<polygon fill="#63b8ff" stroke="#63b8ff" points="463.22,-28.08 471.13,-21.02 460.55,-21.6 463.22,-28.08"/>
</a>
</g>
</g>
</g>
</svg>

<g id="navigator" transform="translate(0 0)" fill="#404254">
  <rect fill="#f2f5e9" fill-opacity="0.5" stroke="#606060" stroke-width=".5" x="0" y="0" width="60" height="60"/>
  <use id="zoomplus" xlink:href="#zoomPlus" x="17" y="9" onmousedown="handleZoom(evt,'in')"/>
  <use id="zoomminus" xlink:href="#zoomMin" x="42" y="9" onmousedown="handleZoom(evt,'out')"/>
  <use id="reset" xlink:href="#resetDef" x="30" y="36" onmousedown="handleReset()"/>
   <use id="arrowup" xlink:href="#arrowUp" x="0" y="0" onmousedown="handlePan(0,-1)"/>
  <use id="arrowright" xlink:href="#arrowRight" x="0" y="0" onmousedown="handlePan(1,0)"/>
  <use id="arrowdown" xlink:href="#arrowDown" x="0" y="0" onmousedown="handlePan(0,1)"/>
  <use id="arrowleft" xlink:href="#arrowLeft" x="0" y="0" onmousedown="handlePan(-1,0)"/>
</g>
<svg viewBox="0 0 15 15" width="100%" height="30px" preserveAspectRatio="xMaxYMin meet">
 <g id="arrow_out" transform="scale(0.3 0.3)">
  <a xlink:href="classSQLInterpreter_afe6f5863dedf9018fdebd95fad6bed77_cgraph_org.svg" target="_base">
   <rect id="button" ry="5" rx="5" y="6" x="6" height="38" width="38"
        fill="#f2f5e9" fill-opacity="0.5" stroke="#606060" stroke-width="1.0"/>
   <path id="arrow"
     d="M 11.500037,31.436501 C 11.940474,20.09759 22.043105,11.32322 32.158766,21.979434 L 37.068811,17.246167 C 37.068811,17.246167 37.088388,32 37.088388,32 L 22.160133,31.978069 C 22.160133,31.978069 26.997745,27.140456 26.997745,27.140456 C 18.528582,18.264221 13.291696,25.230495 11.500037,31.436501 z"
     style="fill:#404040;"/>
  </a>
 </g>
</svg>

<style type='text/css'>
<![CDATA[
[data-mouse-over-selected='false'] { opacity: 0.7; }
[data-mouse-over-selected='true']  { opacity: 1.0; }
]]>
</style>
<script type="application/ecmascript"><![CDATA[
document.addEventListener('DOMContentLoaded', (event) => {
  highlightEdges();
  highlightAdjacentNodes();
});
]]></script>
</svg>
