<?xml version="1.0" encoding="UTF-8" standalone="no"?>
<!DOCTYPE svg PUBLIC "-//W3C//DTD SVG 1.1//EN"
 "http://www.w3.org/Graphics/SVG/1.1/DTD/svg11.dtd">
<!-- Generated by graphviz version 12.1.0 (20240811.2233)
 -->
<!-- Title: Lexer::tokenize Pages: 1 -->
<svg width="385pt" height="218pt"
 viewBox="0.00 0.00 385.25 218.00" xmlns="http://www.w3.org/2000/svg" xmlns:xlink="http://www.w3.org/1999/xlink">
<g id="graph0" class="graph" transform="scale(1 1) rotate(0) translate(4 214)">
<title>Lexer::tokenize</title>
<!-- Node1 -->
<g id="Node000001" class="node">
<title>Node1</title>
<g id="a_Node000001"><a xlink:title=" ">
<polygon fill="#999999" stroke="#666666" points="82.75,-115 0,-115 0,-95 82.75,-95 82.75,-115"/>
<text text-anchor="middle" x="41.38" y="-101.5" font-family="Helvetica,sans-Serif" font-size="10.00">Lexer::tokenize</text>
</a>
</g>
</g>
<!-- Node2 -->
<g id="Node000002" class="node">
<title>Node2</title>
<g id="a_Node000002"><a xlink:href="classLexer.html#aeef65cdc820f48477913e8411df2fcf4" target="_top" xlink:title=" ">
<polygon fill="white" stroke="#666666" points="224.75,-115 118.75,-115 118.75,-95 224.75,-95 224.75,-115"/>
<text text-anchor="middle" x="171.75" y="-101.5" font-family="Helvetica,sans-Serif" font-size="10.00">Lexer::classifyToken</text>
</a>
</g>
</g>
<!-- Node1&#45;&gt;Node2 -->
<g id="edge1_Node000001_Node000002" class="edge">
<title>Node1&#45;&gt;Node2</title>
<g id="a_edge1_Node000001_Node000002"><a xlink:title=" ">
<path fill="none" stroke="#63b8ff" d="M82.99,-105C90.77,-105 99.08,-105 107.38,-105"/>
<polygon fill="#63b8ff" stroke="#63b8ff" points="107.11,-108.5 117.11,-105 107.11,-101.5 107.11,-108.5"/>
</a>
</g>
</g>
<!-- Node3 -->
<g id="Node000003" class="node">
<title>Node3</title>
<g id="a_Node000003"><a xlink:href="classLexer.html#a7d2a073525f3dafc49701dc64fb8455a" target="_top" xlink:title=" ">
<polygon fill="white" stroke="#666666" points="351.38,-210 286.62,-210 286.62,-190 351.38,-190 351.38,-210"/>
<text text-anchor="middle" x="319" y="-196.5" font-family="Helvetica,sans-Serif" font-size="10.00">Lexer::isAll</text>
</a>
</g>
</g>
<!-- Node2&#45;&gt;Node3 -->
<g id="edge2_Node000002_Node000003" class="edge">
<title>Node2&#45;&gt;Node3</title>
<g id="a_edge2_Node000002_Node000003"><a xlink:title=" ">
<path fill="none" stroke="#63b8ff" d="M182.05,-115.3C197.12,-131.42 228.45,-162.66 260.75,-181 265.4,-183.64 270.47,-185.98 275.61,-188.04"/>
<polygon fill="#63b8ff" stroke="#63b8ff" points="274.14,-191.23 284.73,-191.36 276.53,-184.65 274.14,-191.23"/>
</a>
</g>
</g>
<!-- Node4 -->
<g id="Node000004" class="node">
<title>Node4</title>
<g id="a_Node000004"><a xlink:href="classLexer.html#acc2c15fd3f25cbc9e0fba3946ddfe1fe" target="_top" xlink:title=" ">
<polygon fill="white" stroke="#666666" points="364.5,-172 273.5,-172 273.5,-152 364.5,-152 364.5,-172"/>
<text text-anchor="middle" x="319" y="-158.5" font-family="Helvetica,sans-Serif" font-size="10.00">Lexer::isIdentifier</text>
</a>
</g>
</g>
<!-- Node2&#45;&gt;Node4 -->
<g id="edge3_Node000002_Node000004" class="edge">
<title>Node2&#45;&gt;Node4</title>
<g id="a_edge3_Node000002_Node000004"><a xlink:title=" ">
<path fill="none" stroke="#63b8ff" d="M195.32,-115.39C212.96,-123.36 238.2,-134.41 260.75,-143 265.1,-144.66 269.66,-146.31 274.24,-147.91"/>
<polygon fill="#63b8ff" stroke="#63b8ff" points="272.8,-151.12 283.4,-151.05 275.07,-144.5 272.8,-151.12"/>
</a>
</g>
</g>
<!-- Node5 -->
<g id="Node000005" class="node">
<title>Node5</title>
<g id="a_Node000005"><a xlink:href="classLexer.html#a4546b85fe75e0152a3cba759d18f240d" target="_top" xlink:title=" ">
<polygon fill="white" stroke="#666666" points="364.88,-134 273.12,-134 273.12,-114 364.88,-114 364.88,-134"/>
<text text-anchor="middle" x="319" y="-120.5" font-family="Helvetica,sans-Serif" font-size="10.00">Lexer::isKeyword</text>
</a>
</g>
</g>
<!-- Node2&#45;&gt;Node5 -->
<g id="edge4_Node000002_Node000005" class="edge">
<title>Node2&#45;&gt;Node5</title>
<g id="a_edge4_Node000002_Node000005"><a xlink:title=" ">
<path fill="none" stroke="#63b8ff" d="M225.19,-111.86C237.01,-113.41 249.61,-115.05 261.59,-116.62"/>
<polygon fill="#63b8ff" stroke="#63b8ff" points="260.97,-120.07 271.34,-117.9 261.88,-113.13 260.97,-120.07"/>
</a>
</g>
</g>
<!-- Node6 -->
<g id="Node000006" class="node">
<title>Node6</title>
<g id="a_Node000006"><a xlink:href="classLexer.html#a6c8157cad4951a2f24c763ab5645e693" target="_top" xlink:title=" ">
<polygon fill="white" stroke="#666666" points="377.25,-96 260.75,-96 260.75,-76 377.25,-76 377.25,-96"/>
<text text-anchor="middle" x="319" y="-82.5" font-family="Helvetica,sans-Serif" font-size="10.00">Lexer::isNumericLiteral</text>
</a>
</g>
</g>
<!-- Node2&#45;&gt;Node6 -->
<g id="edge5_Node000002_Node000006" class="edge">
<title>Node2&#45;&gt;Node6</title>
<g id="a_edge5_Node000002_Node000006"><a xlink:title=" ">
<path fill="none" stroke="#63b8ff" d="M225.19,-98.14C233.03,-97.11 241.22,-96.04 249.33,-94.98"/>
<polygon fill="#63b8ff" stroke="#63b8ff" points="249.76,-98.46 259.22,-93.69 248.85,-91.52 249.76,-98.46"/>
</a>
</g>
</g>
<!-- Node7 -->
<g id="Node000007" class="node">
<title>Node7</title>
<g id="a_Node000007"><a xlink:href="classLexer.html#af0d792d931a1c5c168bc224b5218bdb8" target="_top" xlink:title=" ">
<polygon fill="white" stroke="#666666" points="364.5,-58 273.5,-58 273.5,-38 364.5,-38 364.5,-58"/>
<text text-anchor="middle" x="319" y="-44.5" font-family="Helvetica,sans-Serif" font-size="10.00">Lexer::isOperator</text>
</a>
</g>
</g>
<!-- Node2&#45;&gt;Node7 -->
<g id="edge6_Node000002_Node000007" class="edge">
<title>Node2&#45;&gt;Node7</title>
<g id="a_edge6_Node000002_Node000007"><a xlink:title=" ">
<path fill="none" stroke="#63b8ff" d="M195.32,-94.61C212.96,-86.64 238.2,-75.59 260.75,-67 265.1,-65.34 269.66,-63.69 274.24,-62.09"/>
<polygon fill="#63b8ff" stroke="#63b8ff" points="275.07,-65.5 283.4,-58.95 272.8,-58.88 275.07,-65.5"/>
</a>
</g>
</g>
<!-- Node8 -->
<g id="Node000008" class="node">
<title>Node8</title>
<g id="a_Node000008"><a xlink:href="classLexer.html#aed757d18850c5bfe53b6b0fa65a07587" target="_top" xlink:title=" ">
<polygon fill="white" stroke="#666666" points="371.62,-20 266.38,-20 266.38,0 371.62,0 371.62,-20"/>
<text text-anchor="middle" x="319" y="-6.5" font-family="Helvetica,sans-Serif" font-size="10.00">Lexer::isStringLiteral</text>
</a>
</g>
</g>
<!-- Node2&#45;&gt;Node8 -->
<g id="edge7_Node000002_Node000008" class="edge">
<title>Node2&#45;&gt;Node8</title>
<g id="a_edge7_Node000002_Node000008"><a xlink:title=" ">
<path fill="none" stroke="#63b8ff" d="M182.05,-94.7C197.12,-78.58 228.45,-47.34 260.75,-29 263.39,-27.5 266.17,-26.1 269.02,-24.79"/>
<polygon fill="#63b8ff" stroke="#63b8ff" points="270.22,-28.08 278.13,-21.02 267.55,-21.6 270.22,-28.08"/>
</a>
</g>
</g>
</g>
</svg>
