<?xml version="1.0" encoding="UTF-8" standalone="no"?>
<!DOCTYPE svg PUBLIC "-//W3C//DTD SVG 1.1//EN"
 "http://www.w3.org/Graphics/SVG/1.1/DTD/svg11.dtd">
<!-- Generated by graphviz version 12.1.0 (20240811.2233)
 -->
<!-- Title: Graphical Class Hierarchy Pages: 1 -->
<svg width="164pt" height="66pt"
 viewBox="0.00 0.00 163.75 66.00" xmlns="http://www.w3.org/2000/svg" xmlns:xlink="http://www.w3.org/1999/xlink">
<g id="graph0" class="graph" transform="scale(1 1) rotate(0) translate(4 62)">
<title>Graphical Class Hierarchy</title>
<!-- Node0 -->
<g id="Node000000" class="node">
<title>Node0</title>
<g id="a_Node000000"><a xlink:href="classSymbol.html" target="_top" xlink:title=" ">
<polygon fill="white" stroke="#666666" points="49,-39 0,-39 0,-19 49,-19 49,-39"/>
<text text-anchor="middle" x="24.5" y="-25.5" font-family="Helvetica,sans-Serif" font-size="10.00">Symbol</text>
</a>
</g>
</g>
<!-- Node1 -->
<g id="Node000001" class="node">
<title>Node1</title>
<g id="a_Node000001"><a xlink:href="classNonTerminal.html" target="_top" xlink:title=" ">
<polygon fill="white" stroke="#666666" points="155.75,-58 85,-58 85,-38 155.75,-38 155.75,-58"/>
<text text-anchor="middle" x="120.38" y="-44.5" font-family="Helvetica,sans-Serif" font-size="10.00">NonTerminal</text>
</a>
</g>
</g>
<!-- Node0&#45;&gt;Node1 -->
<g id="edge1_Node000000_Node000001" class="edge">
<title>Node0&#45;&gt;Node1</title>
<g id="a_edge1_Node000000_Node000001"><a xlink:title=" ">
<path fill="none" stroke="#63b8ff" d="M60.36,-36.06C68.31,-37.66 76.75,-39.37 84.69,-40.98"/>
<polygon fill="#63b8ff" stroke="#63b8ff" points="61.17,-32.65 50.67,-34.09 59.78,-39.51 61.17,-32.65"/>
</a>
</g>
</g>
<!-- Node2 -->
<g id="Node000002" class="node">
<title>Node2</title>
<g id="a_Node000002"><a xlink:href="classTerminal.html" target="_top" xlink:title=" ">
<polygon fill="white" stroke="#666666" points="146.75,-20 94,-20 94,0 146.75,0 146.75,-20"/>
<text text-anchor="middle" x="120.38" y="-6.5" font-family="Helvetica,sans-Serif" font-size="10.00">Terminal</text>
</a>
</g>
</g>
<!-- Node0&#45;&gt;Node2 -->
<g id="edge2_Node000000_Node000002" class="edge">
<title>Node0&#45;&gt;Node2</title>
<g id="a_edge2_Node000000_Node000002"><a xlink:title=" ">
<path fill="none" stroke="#63b8ff" d="M60.27,-21.96C71.35,-19.72 83.4,-17.28 93.72,-15.19"/>
<polygon fill="#63b8ff" stroke="#63b8ff" points="59.78,-18.49 50.67,-23.91 61.17,-25.35 59.78,-18.49"/>
</a>
</g>
</g>
</g>
</svg>
