<?xml version="1.0" encoding="UTF-8" standalone="no"?>
<!DOCTYPE svg PUBLIC "-//W3C//DTD SVG 1.1//EN"
 "http://www.w3.org/Graphics/SVG/1.1/DTD/svg11.dtd">
<!-- Generated by graphviz version 12.1.0 (20240811.2233)
 -->
<!-- Title: main Pages: 1 -->
<svg width="651pt" height="351pt"
 viewBox="0.00 0.00 651.25 351.00" xmlns="http://www.w3.org/2000/svg" xmlns:xlink="http://www.w3.org/1999/xlink">
<g id="graph0" class="graph" transform="scale(1 1) rotate(0) translate(4 347)">
<title>main</title>
<!-- Node1 -->
<g id="Node000001" class="node">
<title>Node1</title>
<g id="a_Node000001"><a xlink:title=" ">
<polygon fill="#999999" stroke="#666666" points="37,-150 0,-150 0,-130 37,-130 37,-150"/>
<text text-anchor="middle" x="18.5" y="-136.5" font-family="Helvetica,sans-Serif" font-size="10.00">main</text>
</a>
</g>
</g>
<!-- Node2 -->
<g id="Node000002" class="node">
<title>Node2</title>
<g id="a_Node000002"><a xlink:href="classSQLInterpreter.html#afe6f5863dedf9018fdebd95fad6bed77" target="_top" xlink:title=" ">
<polygon fill="white" stroke="#666666" points="171.5,-178 73,-178 73,-146 171.5,-146 171.5,-178"/>
<text text-anchor="start" x="81" y="-164.5" font-family="Helvetica,sans-Serif" font-size="10.00">SQLInterpreter::init</text>
<text text-anchor="middle" x="122.25" y="-152.5" font-family="Helvetica,sans-Serif" font-size="10.00">_interpreter</text>
</a>
</g>
</g>
<!-- Node1&#45;&gt;Node2 -->
<g id="edge1_Node000001_Node000002" class="edge">
<title>Node1&#45;&gt;Node2</title>
<g id="a_edge1_Node000001_Node000002"><a xlink:title=" ">
<path fill="none" stroke="#63b8ff" d="M37.22,-143.83C44.27,-145.35 52.81,-147.2 61.72,-149.13"/>
<polygon fill="#63b8ff" stroke="#63b8ff" points="60.7,-152.49 71.21,-151.18 62.18,-145.65 60.7,-152.49"/>
</a>
</g>
</g>
<!-- Node21 -->
<g id="Node000021" class="node">
<title>Node21</title>
<g id="a_Node000021"><a xlink:href="Interpreter__main_8cpp.html#a7e050397070ce07d55a0114ec6f27387" target="_top" xlink:title=" ">
<polygon fill="white" stroke="#666666" points="149.75,-128 94.75,-128 94.75,-108 149.75,-108 149.75,-128"/>
<text text-anchor="middle" x="122.25" y="-114.5" font-family="Helvetica,sans-Serif" font-size="10.00">printHelp</text>
</a>
</g>
</g>
<!-- Node1&#45;&gt;Node21 -->
<g id="edge20_Node000001_Node000021" class="edge">
<title>Node1&#45;&gt;Node21</title>
<g id="a_edge20_Node000001_Node000021"><a xlink:title=" ">
<path fill="none" stroke="#63b8ff" d="M37.22,-136.17C49.96,-133.41 67.61,-129.6 83.44,-126.17"/>
<polygon fill="#63b8ff" stroke="#63b8ff" points="84.04,-129.63 93.08,-124.09 82.56,-122.78 84.04,-129.63"/>
</a>
</g>
</g>
<!-- Node3 -->
<g id="Node000003" class="node">
<title>Node3</title>
<g id="a_Node000003"><a xlink:href="classParser.html#a65780aca08811f29dda782f145bd7d4d" target="_top" xlink:title=" ">
<polygon fill="white" stroke="#666666" points="315.38,-305 240.88,-305 240.88,-285 315.38,-285 315.38,-305"/>
<text text-anchor="middle" x="278.12" y="-291.5" font-family="Helvetica,sans-Serif" font-size="10.00">Parser::parse</text>
</a>
</g>
</g>
<!-- Node2&#45;&gt;Node3 -->
<g id="edge2_Node000002_Node000003" class="edge">
<title>Node2&#45;&gt;Node3</title>
<g id="a_edge2_Node000002_Node000003"><a xlink:title=" ">
<path fill="none" stroke="#63b8ff" d="M130.83,-178.32C143.26,-203.24 170.34,-250.56 207.5,-276 214.11,-280.52 221.75,-283.97 229.5,-286.6"/>
<polygon fill="#63b8ff" stroke="#63b8ff" points="228.41,-289.93 238.99,-289.37 230.37,-283.21 228.41,-289.93"/>
</a>
</g>
</g>
<!-- Node7 -->
<g id="Node000007" class="node">
<title>Node7</title>
<g id="a_Node000007"><a xlink:href="classParser.html#a2dc265a26604c6829bac6fd93daa14ef" target="_top" xlink:title=" ">
<polygon fill="white" stroke="#666666" points="345.38,-267 210.88,-267 210.88,-247 345.38,-247 345.38,-267"/>
<text text-anchor="middle" x="278.12" y="-253.5" font-family="Helvetica,sans-Serif" font-size="10.00">Parser::printFirstAndFollow</text>
</a>
</g>
</g>
<!-- Node2&#45;&gt;Node7 -->
<g id="edge6_Node000002_Node000007" class="edge">
<title>Node2&#45;&gt;Node7</title>
<g id="a_edge6_Node000002_Node000007"><a xlink:title=" ">
<path fill="none" stroke="#63b8ff" d="M137.09,-178.39C152.55,-195.67 179.15,-222.51 207.5,-238 210.54,-239.66 213.73,-241.18 217,-242.58"/>
<polygon fill="#63b8ff" stroke="#63b8ff" points="215.67,-245.82 226.26,-246.08 218.15,-239.27 215.67,-245.82"/>
</a>
</g>
</g>
<!-- Node8 -->
<g id="Node000008" class="node">
<title>Node8</title>
<g id="a_Node000008"><a xlink:href="classParser.html#aaa59ab12d2363ede9c8f72ff8a32ce88" target="_top" xlink:title=" ">
<polygon fill="white" stroke="#666666" points="333,-229 223.25,-229 223.25,-209 333,-209 333,-229"/>
<text text-anchor="middle" x="278.12" y="-215.5" font-family="Helvetica,sans-Serif" font-size="10.00">Parser::printGrammar</text>
</a>
</g>
</g>
<!-- Node2&#45;&gt;Node8 -->
<g id="edge7_Node000002_Node000008" class="edge">
<title>Node2&#45;&gt;Node8</title>
<g id="a_edge7_Node000002_Node000008"><a xlink:title=" ">
<path fill="none" stroke="#63b8ff" d="M156.37,-178.39C171.7,-185.6 190.29,-193.81 207.5,-200 212.82,-201.91 218.42,-203.74 224.05,-205.45"/>
<polygon fill="#63b8ff" stroke="#63b8ff" points="222.79,-208.73 233.37,-208.18 224.75,-202.01 222.79,-208.73"/>
</a>
</g>
</g>
<!-- Node9 -->
<g id="Node000009" class="node">
<title>Node9</title>
<g id="a_Node000009"><a xlink:href="classParser.html#a7ccefd47273ea741d7350049eac417ff" target="_top" xlink:title=" ">
<polygon fill="white" stroke="#666666" points="332.25,-191 224,-191 224,-171 332.25,-171 332.25,-191"/>
<text text-anchor="middle" x="278.12" y="-177.5" font-family="Helvetica,sans-Serif" font-size="10.00">Parser::printLL1Table</text>
</a>
</g>
</g>
<!-- Node2&#45;&gt;Node9 -->
<g id="edge8_Node000002_Node000009" class="edge">
<title>Node2&#45;&gt;Node9</title>
<g id="a_edge8_Node000002_Node000009"><a xlink:title=" ">
<path fill="none" stroke="#63b8ff" d="M171.94,-168.01C184.8,-169.6 198.89,-171.34 212.45,-173.01"/>
<polygon fill="#63b8ff" stroke="#63b8ff" points="211.83,-176.46 222.18,-174.22 212.69,-169.52 211.83,-176.46"/>
</a>
</g>
</g>
<!-- Node10 -->
<g id="Node000010" class="node">
<title>Node10</title>
<g id="a_Node000010"><a xlink:href="classSQLInterpreter.html#a45b3151cc29597f7657ab93c2c0a4dde" target="_top" xlink:title=" ">
<polygon fill="white" stroke="#666666" points="346.12,-153 210.12,-153 210.12,-133 346.12,-133 346.12,-153"/>
<text text-anchor="middle" x="278.12" y="-139.5" font-family="Helvetica,sans-Serif" font-size="10.00">SQLInterpreter::printTokens</text>
</a>
</g>
</g>
<!-- Node2&#45;&gt;Node10 -->
<g id="edge9_Node000002_Node000010" class="edge">
<title>Node2&#45;&gt;Node10</title>
<g id="a_edge9_Node000002_Node000010"><a xlink:title=" ">
<path fill="none" stroke="#63b8ff" d="M171.94,-155.99C180.36,-154.95 189.3,-153.84 198.28,-152.74"/>
<polygon fill="#63b8ff" stroke="#63b8ff" points="198.64,-156.22 208.13,-151.52 197.78,-149.27 198.64,-156.22"/>
</a>
</g>
</g>
<!-- Node11 -->
<g id="Node000011" class="node">
<title>Node11</title>
<g id="a_Node000011"><a xlink:href="classLexer.html#a53ca4097e5fdc3038c07104a07d91bf0" target="_top" xlink:title=" ">
<polygon fill="white" stroke="#666666" points="319.5,-115 236.75,-115 236.75,-95 319.5,-95 319.5,-115"/>
<text text-anchor="middle" x="278.12" y="-101.5" font-family="Helvetica,sans-Serif" font-size="10.00">Lexer::tokenize</text>
</a>
</g>
</g>
<!-- Node2&#45;&gt;Node11 -->
<g id="edge10_Node000002_Node000011" class="edge">
<title>Node2&#45;&gt;Node11</title>
<g id="a_edge10_Node000002_Node000011"><a xlink:title=" ">
<path fill="none" stroke="#63b8ff" d="M156.37,-145.61C171.7,-138.4 190.29,-130.19 207.5,-124 213.25,-121.93 219.33,-119.97 225.42,-118.13"/>
<polygon fill="#63b8ff" stroke="#63b8ff" points="226.2,-121.55 234.84,-115.41 224.26,-114.82 226.2,-121.55"/>
</a>
</g>
</g>
<!-- Node19 -->
<g id="Node000019" class="node">
<title>Node19</title>
<g id="a_Node000019"><a xlink:href="classSQLInterpreter.html#a2c4a74797e8f4b0bf25c50fcafe6716d" target="_top" xlink:title=" ">
<polygon fill="white" stroke="#666666" points="348.75,-77 207.5,-77 207.5,-57 348.75,-57 348.75,-77"/>
<text text-anchor="middle" x="278.12" y="-63.5" font-family="Helvetica,sans-Serif" font-size="10.00">SQLInterpreter::toLowercase</text>
</a>
</g>
</g>
<!-- Node2&#45;&gt;Node19 -->
<g id="edge18_Node000002_Node000019" class="edge">
<title>Node2&#45;&gt;Node19</title>
<g id="a_edge18_Node000002_Node000019"><a xlink:title=" ">
<path fill="none" stroke="#63b8ff" d="M159.79,-145.51C163.94,-142.94 167.94,-140.1 171.5,-137 192.41,-118.77 184.78,-101.92 207.5,-86 209.42,-84.65 211.44,-83.4 213.52,-82.24"/>
<polygon fill="#63b8ff" stroke="#63b8ff" points="214.78,-85.51 222.31,-78.06 211.78,-79.19 214.78,-85.51"/>
</a>
</g>
</g>
<!-- Node20 -->
<g id="Node000020" class="node">
<title>Node20</title>
<g id="a_Node000020"><a xlink:href="classSQLInterpreter.html#a2626911955392aceda1ce54244faa95b" target="_top" xlink:title=" ">
<polygon fill="white" stroke="#666666" points="329.25,-39 227,-39 227,-19 329.25,-19 329.25,-39"/>
<text text-anchor="middle" x="278.12" y="-25.5" font-family="Helvetica,sans-Serif" font-size="10.00">SQLInterpreter::trim</text>
</a>
</g>
</g>
<!-- Node2&#45;&gt;Node20 -->
<g id="edge19_Node000002_Node000020" class="edge">
<title>Node2&#45;&gt;Node20</title>
<g id="a_edge19_Node000002_Node000020"><a xlink:title=" ">
<path fill="none" stroke="#63b8ff" d="M161.49,-145.61C165.15,-143.07 168.58,-140.21 171.5,-137 200.23,-105.45 175.6,-76.34 207.5,-48 210.26,-45.54 213.31,-43.4 216.55,-41.54"/>
<polygon fill="#63b8ff" stroke="#63b8ff" points="217.81,-44.81 225.34,-37.36 214.81,-38.49 217.81,-44.81"/>
</a>
</g>
</g>
<!-- Node4 -->
<g id="Node000004" class="node">
<title>Node4</title>
<g id="a_Node000004"><a xlink:href="classToken.html#ab2b08d2198a5a68cf098bbb692f8342f" target="_top" xlink:title=" ">
<polygon fill="white" stroke="#666666" points="485.88,-343 389.62,-343 389.62,-323 485.88,-323 485.88,-343"/>
<text text-anchor="middle" x="437.75" y="-329.5" font-family="Helvetica,sans-Serif" font-size="10.00">Token::getLexeme</text>
</a>
</g>
</g>
<!-- Node3&#45;&gt;Node4 -->
<g id="edge3_Node000003_Node000004" class="edge">
<title>Node3&#45;&gt;Node4</title>
<g id="a_edge3_Node000003_Node000004"><a xlink:title=" ">
<path fill="none" stroke="#63b8ff" d="M315.68,-303.81C335.52,-308.6 360.43,-314.6 382.49,-319.92"/>
<polygon fill="#63b8ff" stroke="#63b8ff" points="381.38,-323.25 391.92,-322.19 383.02,-316.45 381.38,-323.25"/>
</a>
</g>
</g>
<!-- Node5 -->
<g id="Node000005" class="node">
<title>Node5</title>
<g id="a_Node000005"><a xlink:href="classSymbol.html#a626bdd3948ea431fa1281416e0d012d5" target="_top" xlink:title=" ">
<polygon fill="white" stroke="#666666" points="488.5,-305 387,-305 387,-285 488.5,-285 488.5,-305"/>
<text text-anchor="middle" x="437.75" y="-291.5" font-family="Helvetica,sans-Serif" font-size="10.00">Symbol::getSymbol</text>
</a>
</g>
</g>
<!-- Node3&#45;&gt;Node5 -->
<g id="edge4_Node000003_Node000005" class="edge">
<title>Node3&#45;&gt;Node5</title>
<g id="a_edge4_Node000003_Node000005"><a xlink:title=" ">
<path fill="none" stroke="#63b8ff" d="M315.68,-295C333.4,-295 355.17,-295 375.34,-295"/>
<polygon fill="#63b8ff" stroke="#63b8ff" points="375.15,-298.5 385.15,-295 375.15,-291.5 375.15,-298.5"/>
</a>
</g>
</g>
<!-- Node6 -->
<g id="Node000006" class="node">
<title>Node6</title>
<g id="a_Node000006"><a xlink:href="classToken.html#aeda1c29c63c88e423312128306393ebb" target="_top" xlink:title=" ">
<polygon fill="white" stroke="#666666" points="479.12,-267 396.38,-267 396.38,-247 479.12,-247 479.12,-267"/>
<text text-anchor="middle" x="437.75" y="-253.5" font-family="Helvetica,sans-Serif" font-size="10.00">Token::getType</text>
</a>
</g>
</g>
<!-- Node3&#45;&gt;Node6 -->
<g id="edge5_Node000003_Node000006" class="edge">
<title>Node3&#45;&gt;Node6</title>
<g id="a_edge5_Node000003_Node000006"><a xlink:title=" ">
<path fill="none" stroke="#63b8ff" d="M315.68,-286.19C336.22,-281.23 362.2,-274.97 384.82,-269.52"/>
<polygon fill="#63b8ff" stroke="#63b8ff" points="385.58,-272.94 394.48,-267.19 383.94,-266.13 385.58,-272.94"/>
</a>
</g>
</g>
<!-- Node12 -->
<g id="Node000012" class="node">
<title>Node12</title>
<g id="a_Node000012"><a xlink:href="classLexer.html#aeef65cdc820f48477913e8411df2fcf4" target="_top" xlink:title=" ">
<polygon fill="white" stroke="#666666" points="490.75,-115 384.75,-115 384.75,-95 490.75,-95 490.75,-115"/>
<text text-anchor="middle" x="437.75" y="-101.5" font-family="Helvetica,sans-Serif" font-size="10.00">Lexer::classifyToken</text>
</a>
</g>
</g>
<!-- Node11&#45;&gt;Node12 -->
<g id="edge11_Node000011_Node000012" class="edge">
<title>Node11&#45;&gt;Node12</title>
<g id="a_edge11_Node000011_Node000012"><a xlink:title=" ">
<path fill="none" stroke="#63b8ff" d="M319.72,-105C335.96,-105 355.05,-105 373.06,-105"/>
<polygon fill="#63b8ff" stroke="#63b8ff" points="372.87,-108.5 382.87,-105 372.87,-101.5 372.87,-108.5"/>
</a>
</g>
</g>
<!-- Node13 -->
<g id="Node000013" class="node">
<title>Node13</title>
<g id="a_Node000013"><a xlink:href="classLexer.html#a7d2a073525f3dafc49701dc64fb8455a" target="_top" xlink:title=" ">
<polygon fill="white" stroke="#666666" points="617.38,-210 552.62,-210 552.62,-190 617.38,-190 617.38,-210"/>
<text text-anchor="middle" x="585" y="-196.5" font-family="Helvetica,sans-Serif" font-size="10.00">Lexer::isAll</text>
</a>
</g>
</g>
<!-- Node12&#45;&gt;Node13 -->
<g id="edge12_Node000012_Node000013" class="edge">
<title>Node12&#45;&gt;Node13</title>
<g id="a_edge12_Node000012_Node000013"><a xlink:title=" ">
<path fill="none" stroke="#63b8ff" d="M448.05,-115.3C463.12,-131.42 494.45,-162.66 526.75,-181 531.4,-183.64 536.47,-185.98 541.61,-188.04"/>
<polygon fill="#63b8ff" stroke="#63b8ff" points="540.14,-191.23 550.73,-191.36 542.53,-184.65 540.14,-191.23"/>
</a>
</g>
</g>
<!-- Node14 -->
<g id="Node000014" class="node">
<title>Node14</title>
<g id="a_Node000014"><a xlink:href="classLexer.html#acc2c15fd3f25cbc9e0fba3946ddfe1fe" target="_top" xlink:title=" ">
<polygon fill="white" stroke="#666666" points="630.5,-172 539.5,-172 539.5,-152 630.5,-152 630.5,-172"/>
<text text-anchor="middle" x="585" y="-158.5" font-family="Helvetica,sans-Serif" font-size="10.00">Lexer::isIdentifier</text>
</a>
</g>
</g>
<!-- Node12&#45;&gt;Node14 -->
<g id="edge13_Node000012_Node000014" class="edge">
<title>Node12&#45;&gt;Node14</title>
<g id="a_edge13_Node000012_Node000014"><a xlink:title=" ">
<path fill="none" stroke="#63b8ff" d="M461.32,-115.39C478.96,-123.36 504.2,-134.41 526.75,-143 531.1,-144.66 535.66,-146.31 540.24,-147.91"/>
<polygon fill="#63b8ff" stroke="#63b8ff" points="538.8,-151.12 549.4,-151.05 541.07,-144.5 538.8,-151.12"/>
</a>
</g>
</g>
<!-- Node15 -->
<g id="Node000015" class="node">
<title>Node15</title>
<g id="a_Node000015"><a xlink:href="classLexer.html#a4546b85fe75e0152a3cba759d18f240d" target="_top" xlink:title=" ">
<polygon fill="white" stroke="#666666" points="630.88,-134 539.12,-134 539.12,-114 630.88,-114 630.88,-134"/>
<text text-anchor="middle" x="585" y="-120.5" font-family="Helvetica,sans-Serif" font-size="10.00">Lexer::isKeyword</text>
</a>
</g>
</g>
<!-- Node12&#45;&gt;Node15 -->
<g id="edge14_Node000012_Node000015" class="edge">
<title>Node12&#45;&gt;Node15</title>
<g id="a_edge14_Node000012_Node000015"><a xlink:title=" ">
<path fill="none" stroke="#63b8ff" d="M491.19,-111.86C503.01,-113.41 515.61,-115.05 527.59,-116.62"/>
<polygon fill="#63b8ff" stroke="#63b8ff" points="526.97,-120.07 537.34,-117.9 527.88,-113.13 526.97,-120.07"/>
</a>
</g>
</g>
<!-- Node16 -->
<g id="Node000016" class="node">
<title>Node16</title>
<g id="a_Node000016"><a xlink:href="classLexer.html#a6c8157cad4951a2f24c763ab5645e693" target="_top" xlink:title=" ">
<polygon fill="white" stroke="#666666" points="643.25,-96 526.75,-96 526.75,-76 643.25,-76 643.25,-96"/>
<text text-anchor="middle" x="585" y="-82.5" font-family="Helvetica,sans-Serif" font-size="10.00">Lexer::isNumericLiteral</text>
</a>
</g>
</g>
<!-- Node12&#45;&gt;Node16 -->
<g id="edge15_Node000012_Node000016" class="edge">
<title>Node12&#45;&gt;Node16</title>
<g id="a_edge15_Node000012_Node000016"><a xlink:title=" ">
<path fill="none" stroke="#63b8ff" d="M491.19,-98.14C499.03,-97.11 507.22,-96.04 515.33,-94.98"/>
<polygon fill="#63b8ff" stroke="#63b8ff" points="515.76,-98.46 525.22,-93.69 514.85,-91.52 515.76,-98.46"/>
</a>
</g>
</g>
<!-- Node17 -->
<g id="Node000017" class="node">
<title>Node17</title>
<g id="a_Node000017"><a xlink:href="classLexer.html#af0d792d931a1c5c168bc224b5218bdb8" target="_top" xlink:title=" ">
<polygon fill="white" stroke="#666666" points="630.5,-58 539.5,-58 539.5,-38 630.5,-38 630.5,-58"/>
<text text-anchor="middle" x="585" y="-44.5" font-family="Helvetica,sans-Serif" font-size="10.00">Lexer::isOperator</text>
</a>
</g>
</g>
<!-- Node12&#45;&gt;Node17 -->
<g id="edge16_Node000012_Node000017" class="edge">
<title>Node12&#45;&gt;Node17</title>
<g id="a_edge16_Node000012_Node000017"><a xlink:title=" ">
<path fill="none" stroke="#63b8ff" d="M461.32,-94.61C478.96,-86.64 504.2,-75.59 526.75,-67 531.1,-65.34 535.66,-63.69 540.24,-62.09"/>
<polygon fill="#63b8ff" stroke="#63b8ff" points="541.07,-65.5 549.4,-58.95 538.8,-58.88 541.07,-65.5"/>
</a>
</g>
</g>
<!-- Node18 -->
<g id="Node000018" class="node">
<title>Node18</title>
<g id="a_Node000018"><a xlink:href="classLexer.html#aed757d18850c5bfe53b6b0fa65a07587" target="_top" xlink:title=" ">
<polygon fill="white" stroke="#666666" points="637.62,-20 532.38,-20 532.38,0 637.62,0 637.62,-20"/>
<text text-anchor="middle" x="585" y="-6.5" font-family="Helvetica,sans-Serif" font-size="10.00">Lexer::isStringLiteral</text>
</a>
</g>
</g>
<!-- Node12&#45;&gt;Node18 -->
<g id="edge17_Node000012_Node000018" class="edge">
<title>Node12&#45;&gt;Node18</title>
<g id="a_edge17_Node000012_Node000018"><a xlink:title=" ">
<path fill="none" stroke="#63b8ff" d="M448.05,-94.7C463.12,-78.58 494.45,-47.34 526.75,-29 529.39,-27.5 532.17,-26.1 535.02,-24.79"/>
<polygon fill="#63b8ff" stroke="#63b8ff" points="536.22,-28.08 544.13,-21.02 533.55,-21.6 536.22,-28.08"/>
</a>
</g>
</g>
</g>
</svg>
