<?xml version="1.0" encoding="UTF-8" standalone="no"?>
<!DOCTYPE svg PUBLIC "-//W3C//DTD SVG 1.1//EN"
 "http://www.w3.org/Graphics/SVG/1.1/DTD/svg11.dtd">
<!-- Generated by graphviz version 12.1.0 (20240811.2233)
 -->
<!-- Title: src/Interpreter_main.cpp Pages: 1 -->
<svg width="516pt" height="252pt"
 viewBox="0.00 0.00 516.38 252.00" xmlns="http://www.w3.org/2000/svg" xmlns:xlink="http://www.w3.org/1999/xlink">
<g id="graph0" class="graph" transform="scale(1 1) rotate(0) translate(4 248)">
<title>src/Interpreter_main.cpp</title>
<!-- Node1 -->
<g id="Node000001" class="node">
<title>Node1</title>
<g id="a_Node000001"><a xlink:title=" ">
<polygon fill="#999999" stroke="#666666" points="194.62,-244 72.88,-244 72.88,-224 194.62,-224 194.62,-244"/>
<text text-anchor="middle" x="133.75" y="-230.5" font-family="Helvetica,sans-Serif" font-size="10.00">src/Interpreter_main.cpp</text>
</a>
</g>
</g>
<!-- Node2 -->
<g id="Node000002" class="node">
<title>Node2</title>
<g id="a_Node000002"><a xlink:href="SQL__Intepreter_8h.html" target="_top" xlink:title=" ">
<polygon fill="white" stroke="#666666" points="215.88,-188 125.62,-188 125.62,-168 215.88,-168 215.88,-188"/>
<text text-anchor="middle" x="170.75" y="-174.5" font-family="Helvetica,sans-Serif" font-size="10.00">SQL_Intepreter.h</text>
</a>
</g>
</g>
<!-- Node1&#45;&gt;Node2 -->
<g id="edge1_Node000001_Node000002" class="edge">
<title>Node1&#45;&gt;Node2</title>
<g id="a_edge1_Node000001_Node000002"><a xlink:title=" ">
<path fill="none" stroke="#63b8ff" d="M140.19,-223.59C145.08,-216.47 151.94,-206.45 157.93,-197.72"/>
<polygon fill="#63b8ff" stroke="#63b8ff" points="160.76,-199.77 163.52,-189.55 154.98,-195.82 160.76,-199.77"/>
</a>
</g>
</g>
<!-- Node3 -->
<g id="Node000003" class="node">
<title>Node3</title>
<g id="a_Node000003"><a xlink:title=" ">
<polygon fill="#e0e0e0" stroke="#999999" points="53.5,-76 0,-76 0,-56 53.5,-56 53.5,-76"/>
<text text-anchor="middle" x="26.75" y="-62.5" font-family="Helvetica,sans-Serif" font-size="10.00">iostream</text>
</a>
</g>
</g>
<!-- Node1&#45;&gt;Node3 -->
<g id="edge15_Node000001_Node000003" class="edge">
<title>Node1&#45;&gt;Node3</title>
<g id="a_edge15_Node000001_Node000003"><a xlink:title=" ">
<path fill="none" stroke="#63b8ff" d="M127.69,-223.6C110.62,-197.12 61.9,-121.54 38.97,-85.96"/>
<polygon fill="#63b8ff" stroke="#63b8ff" points="41.92,-84.08 33.56,-77.57 36.04,-87.87 41.92,-84.08"/>
</a>
</g>
</g>
<!-- Node5 -->
<g id="Node000005" class="node">
<title>Node5</title>
<g id="a_Node000005"><a xlink:title=" ">
<polygon fill="#e0e0e0" stroke="#999999" points="114.25,-76 71.25,-76 71.25,-56 114.25,-56 114.25,-76"/>
<text text-anchor="middle" x="92.75" y="-62.5" font-family="Helvetica,sans-Serif" font-size="10.00">vector</text>
</a>
</g>
</g>
<!-- Node1&#45;&gt;Node5 -->
<g id="edge17_Node000001_Node000005" class="edge">
<title>Node1&#45;&gt;Node5</title>
<g id="a_edge17_Node000001_Node000005"><a xlink:title=" ">
<path fill="none" stroke="#63b8ff" d="M129.78,-223.84C126,-214.85 120.38,-200.69 116.75,-188 106.82,-153.27 99.55,-111.77 95.76,-87.51"/>
<polygon fill="#63b8ff" stroke="#63b8ff" points="99.23,-87.09 94.27,-77.73 92.31,-88.14 99.23,-87.09"/>
</a>
</g>
</g>
<!-- Node13 -->
<g id="Node000013" class="node">
<title>Node13</title>
<g id="a_Node000013"><a xlink:title=" ">
<polygon fill="#e0e0e0" stroke="#999999" points="317.12,-188 234.38,-188 234.38,-168 317.12,-168 317.12,-188"/>
<text text-anchor="middle" x="275.75" y="-174.5" font-family="Helvetica,sans-Serif" font-size="10.00">unordered_map</text>
</a>
</g>
</g>
<!-- Node1&#45;&gt;Node13 -->
<g id="edge16_Node000001_Node000013" class="edge">
<title>Node1&#45;&gt;Node13</title>
<g id="a_edge16_Node000001_Node000013"><a xlink:title=" ">
<path fill="none" stroke="#63b8ff" d="M158.48,-223.59C181.05,-215.01 214.66,-202.23 240.12,-192.55"/>
<polygon fill="#63b8ff" stroke="#63b8ff" points="241.3,-195.84 249.41,-189.02 238.82,-189.3 241.3,-195.84"/>
</a>
</g>
</g>
<!-- Node2&#45;&gt;Node3 -->
<g id="edge2_Node000002_Node000003" class="edge">
<title>Node2&#45;&gt;Node3</title>
<g id="a_edge2_Node000002_Node000003"><a xlink:title=" ">
<path fill="none" stroke="#63b8ff" d="M158.47,-167.62C133.92,-148.87 78.53,-106.55 47.97,-83.21"/>
<polygon fill="#63b8ff" stroke="#63b8ff" points="50.27,-80.56 40.2,-77.27 46.02,-86.13 50.27,-80.56"/>
</a>
</g>
</g>
<!-- Node4 -->
<g id="Node000004" class="node">
<title>Node4</title>
<g id="a_Node000004"><a xlink:href="Lexer_8h.html" target="_top" xlink:title=" ">
<polygon fill="white" stroke="#666666" points="194.88,-132 146.62,-132 146.62,-112 194.88,-112 194.88,-132"/>
<text text-anchor="middle" x="170.75" y="-118.5" font-family="Helvetica,sans-Serif" font-size="10.00">Lexer.h</text>
</a>
</g>
</g>
<!-- Node2&#45;&gt;Node4 -->
<g id="edge3_Node000002_Node000004" class="edge">
<title>Node2&#45;&gt;Node4</title>
<g id="a_edge3_Node000002_Node000004"><a xlink:title=" ">
<path fill="none" stroke="#63b8ff" d="M170.75,-167.59C170.75,-161.01 170.75,-151.96 170.75,-143.73"/>
<polygon fill="#63b8ff" stroke="#63b8ff" points="174.25,-143.81 170.75,-133.81 167.25,-143.81 174.25,-143.81"/>
</a>
</g>
</g>
<!-- Node10 -->
<g id="Node000010" class="node">
<title>Node10</title>
<g id="a_Node000010"><a xlink:href="parser_8h.html" target="_top" xlink:title=" ">
<polygon fill="white" stroke="#666666" points="387.38,-132 336.12,-132 336.12,-112 387.38,-112 387.38,-132"/>
<text text-anchor="middle" x="361.75" y="-118.5" font-family="Helvetica,sans-Serif" font-size="10.00">parser.h</text>
</a>
</g>
</g>
<!-- Node2&#45;&gt;Node10 -->
<g id="edge11_Node000002_Node000010" class="edge">
<title>Node2&#45;&gt;Node10</title>
<g id="a_edge11_Node000002_Node000010"><a xlink:title=" ">
<path fill="none" stroke="#63b8ff" d="M204.02,-167.59C237.87,-158.02 290.2,-143.23 325.19,-133.34"/>
<polygon fill="#63b8ff" stroke="#63b8ff" points="325.77,-136.81 334.44,-130.72 323.87,-130.07 325.77,-136.81"/>
</a>
</g>
</g>
<!-- Node4&#45;&gt;Node3 -->
<g id="edge6_Node000004_Node000003" class="edge">
<title>Node4&#45;&gt;Node3</title>
<g id="a_edge6_Node000004_Node000003"><a xlink:title=" ">
<path fill="none" stroke="#63b8ff" d="M146.32,-111.84C123.29,-103.2 88.51,-90.16 62.39,-80.36"/>
<polygon fill="#63b8ff" stroke="#63b8ff" points="63.79,-77.15 53.2,-76.92 61.33,-83.71 63.79,-77.15"/>
</a>
</g>
</g>
<!-- Node4&#45;&gt;Node5 -->
<g id="edge4_Node000004_Node000005" class="edge">
<title>Node4&#45;&gt;Node5</title>
<g id="a_edge4_Node000004_Node000005"><a xlink:title=" ">
<path fill="none" stroke="#63b8ff" d="M157.16,-111.59C145.71,-103.67 129.09,-92.16 115.59,-82.82"/>
<polygon fill="#63b8ff" stroke="#63b8ff" points="117.9,-80.16 107.69,-77.34 113.92,-85.91 117.9,-80.16"/>
</a>
</g>
</g>
<!-- Node6 -->
<g id="Node000006" class="node">
<title>Node6</title>
<g id="a_Node000006"><a xlink:title=" ">
<polygon fill="#e0e0e0" stroke="#999999" points="251.75,-20 211.75,-20 211.75,0 251.75,0 251.75,-20"/>
<text text-anchor="middle" x="231.75" y="-6.5" font-family="Helvetica,sans-Serif" font-size="10.00">string</text>
</a>
</g>
</g>
<!-- Node4&#45;&gt;Node6 -->
<g id="edge5_Node000004_Node000006" class="edge">
<title>Node4&#45;&gt;Node6</title>
<g id="a_edge5_Node000004_Node000006"><a xlink:title=" ">
<path fill="none" stroke="#63b8ff" d="M166.05,-111.53C160.18,-98.27 152.03,-73.8 161.75,-56 170.16,-40.59 186.36,-29.67 201.05,-22.45"/>
<polygon fill="#63b8ff" stroke="#63b8ff" points="202.28,-25.74 209.98,-18.46 199.42,-19.35 202.28,-25.74"/>
</a>
</g>
</g>
<!-- Node7 -->
<g id="Node000007" class="node">
<title>Node7</title>
<g id="a_Node000007"><a xlink:title=" ">
<polygon fill="#e0e0e0" stroke="#999999" points="210.75,-76 170.75,-76 170.75,-56 210.75,-56 210.75,-76"/>
<text text-anchor="middle" x="190.75" y="-62.5" font-family="Helvetica,sans-Serif" font-size="10.00">regex</text>
</a>
</g>
</g>
<!-- Node4&#45;&gt;Node7 -->
<g id="edge7_Node000004_Node000007" class="edge">
<title>Node4&#45;&gt;Node7</title>
<g id="a_edge7_Node000004_Node000007"><a xlink:title=" ">
<path fill="none" stroke="#63b8ff" d="M174.23,-111.59C176.76,-104.78 180.26,-95.32 183.39,-86.86"/>
<polygon fill="#63b8ff" stroke="#63b8ff" points="186.59,-88.31 186.78,-77.72 180.03,-85.88 186.59,-88.31"/>
</a>
</g>
</g>
<!-- Node8 -->
<g id="Node000008" class="node">
<title>Node8</title>
<g id="a_Node000008"><a xlink:title=" ">
<polygon fill="#e0e0e0" stroke="#999999" points="278.25,-76 229.25,-76 229.25,-56 278.25,-56 278.25,-76"/>
<text text-anchor="middle" x="253.75" y="-62.5" font-family="Helvetica,sans-Serif" font-size="10.00">fstream</text>
</a>
</g>
</g>
<!-- Node4&#45;&gt;Node8 -->
<g id="edge8_Node000004_Node000008" class="edge">
<title>Node4&#45;&gt;Node8</title>
<g id="a_edge8_Node000004_Node000008"><a xlink:title=" ">
<path fill="none" stroke="#63b8ff" d="M185.21,-111.59C197.51,-103.59 215.43,-91.93 229.86,-82.54"/>
<polygon fill="#63b8ff" stroke="#63b8ff" points="231.44,-85.69 237.91,-77.3 227.62,-79.82 231.44,-85.69"/>
</a>
</g>
</g>
<!-- Node9 -->
<g id="Node000009" class="node">
<title>Node9</title>
<g id="a_Node000009"><a xlink:href="Token_8h.html" target="_top" xlink:title=" ">
<polygon fill="white" stroke="#666666" points="347,-76 296.5,-76 296.5,-56 347,-56 347,-76"/>
<text text-anchor="middle" x="321.75" y="-62.5" font-family="Helvetica,sans-Serif" font-size="10.00">Token.h</text>
</a>
</g>
</g>
<!-- Node4&#45;&gt;Node9 -->
<g id="edge9_Node000004_Node000009" class="edge">
<title>Node4&#45;&gt;Node9</title>
<g id="a_edge9_Node000004_Node000009"><a xlink:title=" ">
<path fill="none" stroke="#63b8ff" d="M195.35,-112.2C219.84,-103.44 257.71,-89.9 285.62,-79.92"/>
<polygon fill="#63b8ff" stroke="#63b8ff" points="286.49,-83.33 294.73,-76.66 284.13,-76.74 286.49,-83.33"/>
</a>
</g>
</g>
<!-- Node9&#45;&gt;Node6 -->
<g id="edge10_Node000009_Node000006" class="edge">
<title>Node9&#45;&gt;Node6</title>
<g id="a_edge10_Node000009_Node000006"><a xlink:title=" ">
<path fill="none" stroke="#63b8ff" d="M306.07,-55.59C292.61,-47.51 272.93,-35.71 257.21,-26.27"/>
<polygon fill="#63b8ff" stroke="#63b8ff" points="259.22,-23.4 248.85,-21.26 255.62,-29.4 259.22,-23.4"/>
</a>
</g>
</g>
<!-- Node10&#45;&gt;Node9 -->
<g id="edge14_Node000010_Node000009" class="edge">
<title>Node10&#45;&gt;Node9</title>
<g id="a_edge14_Node000010_Node000009"><a xlink:title=" ">
<path fill="none" stroke="#63b8ff" d="M354.78,-111.59C349.45,-104.39 341.92,-94.23 335.4,-85.43"/>
<polygon fill="#63b8ff" stroke="#63b8ff" points="338.3,-83.47 329.54,-77.51 332.68,-87.63 338.3,-83.47"/>
</a>
</g>
</g>
<!-- Node11 -->
<g id="Node000011" class="node">
<title>Node11</title>
<g id="a_Node000011"><a xlink:title=" ">
<polygon fill="#e0e0e0" stroke="#999999" points="438.62,-76 364.88,-76 364.88,-56 438.62,-56 438.62,-76"/>
<text text-anchor="middle" x="401.75" y="-62.5" font-family="Helvetica,sans-Serif" font-size="10.00">bits/stdc++.h</text>
</a>
</g>
</g>
<!-- Node10&#45;&gt;Node11 -->
<g id="edge12_Node000010_Node000011" class="edge">
<title>Node10&#45;&gt;Node11</title>
<g id="a_edge12_Node000010_Node000011"><a xlink:title=" ">
<path fill="none" stroke="#63b8ff" d="M368.72,-111.59C374.05,-104.39 381.58,-94.23 388.1,-85.43"/>
<polygon fill="#63b8ff" stroke="#63b8ff" points="390.82,-87.63 393.96,-77.51 385.2,-83.47 390.82,-87.63"/>
</a>
</g>
</g>
<!-- Node12 -->
<g id="Node000012" class="node">
<title>Node12</title>
<g id="a_Node000012"><a xlink:title=" ">
<polygon fill="#e0e0e0" stroke="#999999" points="508.38,-76 457.12,-76 457.12,-56 508.38,-56 508.38,-76"/>
<text text-anchor="middle" x="482.75" y="-62.5" font-family="Helvetica,sans-Serif" font-size="10.00">memory</text>
</a>
</g>
</g>
<!-- Node10&#45;&gt;Node12 -->
<g id="edge13_Node000010_Node000012" class="edge">
<title>Node10&#45;&gt;Node12</title>
<g id="a_edge13_Node000010_Node000012"><a xlink:title=" ">
<path fill="none" stroke="#63b8ff" d="M382.83,-111.59C401.71,-103.17 429.67,-90.69 451.21,-81.07"/>
<polygon fill="#63b8ff" stroke="#63b8ff" points="452.42,-84.37 460.13,-77.1 449.57,-77.98 452.42,-84.37"/>
</a>
</g>
</g>
</g>
</svg>
