<?xml version="1.0" encoding="UTF-8" standalone="no"?>
<!DOCTYPE svg PUBLIC "-//W3C//DTD SVG 1.1//EN"
 "http://www.w3.org/Graphics/SVG/1.1/DTD/svg11.dtd">
<!-- Generated by graphviz version 12.1.0 (20240811.2233)
 -->
<!-- Title: include/Lexer.h Pages: 1 -->
<svg width="294pt" height="140pt"
 viewBox="0.00 0.00 293.50 140.00" xmlns="http://www.w3.org/2000/svg" xmlns:xlink="http://www.w3.org/1999/xlink">

<svg id="main" version="1.1" xmlns="http://www.w3.org/2000/svg" xmlns:xlink="http://www.w3.org/1999/xlink" xml:space="preserve">

<style type="text/css"><![CDATA[
.node, .edge {opacity: 0.7;}
.node.selected, .edge.selected {opacity: 1;}
.edge:hover path { stroke: red; }
.edge:hover polygon { stroke: red; fill: red; }
]]></style>
<script type="application/ecmascript" xlink:href="svg.min.js"/>
<svg id="graph" class="graph">
<g id="graph0" class="graph" transform="scale(1 1) rotate(0) translate(4 136)">
<title>include/Lexer.h</title>
<!-- Node1 -->
<g id="Node000001" class="node">
<title>Node1</title>
<g id="a_Node000001"><a xlink:title=" ">
<polygon fill="#999999" stroke="#666666" points="229.88,-132 147.88,-132 147.88,-112 229.88,-112 229.88,-132"/>
<text text-anchor="middle" x="188.88" y="-118.5" font-family="Helvetica,sans-Serif" font-size="10.00">include/Lexer.h</text>
</a>
</g>
</g>
<!-- Node2 -->
<g id="Node000002" class="node">
<title>Node2</title>
<g id="a_Node000002"><a xlink:href="SQL__Intepreter_8h.html" target="_top" xlink:title=" ">
<polygon fill="white" stroke="#666666" points="191.88,-76 67.88,-76 67.88,-56 191.88,-56 191.88,-76"/>
<text text-anchor="middle" x="129.88" y="-62.5" font-family="Helvetica,sans-Serif" font-size="10.00">include/SQL_Intepreter.h</text>
</a>
</g>
</g>
<!-- Node1&#45;&gt;Node2 -->
<g id="edge1_Node000001_Node000002" class="edge">
<title>Node1&#45;&gt;Node2</title>
<g id="a_edge1_Node000001_Node000002"><a xlink:title=" ">
<path fill="none" stroke="#63b8ff" d="M170.13,-103.85C160.16,-94.72 148.29,-83.86 140.03,-76.3"/>
<polygon fill="#63b8ff" stroke="#63b8ff" points="167.74,-106.4 177.48,-110.57 172.47,-101.24 167.74,-106.4"/>
</a>
</g>
</g>
<!-- Node5 -->
<g id="Node000005" class="node">
<title>Node5</title>
<g id="a_Node000005"><a xlink:href="Lexer_8cpp.html" target="_top" xlink:title=" ">
<polygon fill="white" stroke="#666666" points="285.5,-76 210.25,-76 210.25,-56 285.5,-56 285.5,-76"/>
<text text-anchor="middle" x="247.88" y="-62.5" font-family="Helvetica,sans-Serif" font-size="10.00">src/Lexer.cpp</text>
</a>
</g>
</g>
<!-- Node1&#45;&gt;Node5 -->
<g id="edge4_Node000001_Node000005" class="edge">
<title>Node1&#45;&gt;Node5</title>
<g id="a_edge4_Node000001_Node000005"><a xlink:title=" ">
<path fill="none" stroke="#63b8ff" d="M207.62,-103.85C217.59,-94.72 229.46,-83.86 237.72,-76.3"/>
<polygon fill="#63b8ff" stroke="#63b8ff" points="205.28,-101.24 200.27,-110.57 210.01,-106.4 205.28,-101.24"/>
</a>
</g>
</g>
<!-- Node3 -->
<g id="Node000003" class="node">
<title>Node3</title>
<g id="a_Node000003"><a xlink:href="Interpreter__main_8cpp.html" target="_top" xlink:title=" ">
<polygon fill="white" stroke="#666666" points="121.75,-20 0,-20 0,0 121.75,0 121.75,-20"/>
<text text-anchor="middle" x="60.88" y="-6.5" font-family="Helvetica,sans-Serif" font-size="10.00">src/Interpreter_main.cpp</text>
</a>
</g>
</g>
<!-- Node2&#45;&gt;Node3 -->
<g id="edge2_Node000002_Node000003" class="edge">
<title>Node2&#45;&gt;Node3</title>
<g id="a_edge2_Node000002_Node000003"><a xlink:title=" ">
<path fill="none" stroke="#63b8ff" d="M109.02,-48.68C97.15,-39.39 82.71,-28.09 72.76,-20.3"/>
<polygon fill="#63b8ff" stroke="#63b8ff" points="106.63,-51.25 116.66,-54.66 110.95,-45.74 106.63,-51.25"/>
</a>
</g>
</g>
<!-- Node4 -->
<g id="Node000004" class="node">
<title>Node4</title>
<g id="a_Node000004"><a xlink:href="SQL__Interpreter_8cpp.html" target="_top" xlink:title=" ">
<polygon fill="white" stroke="#666666" points="260,-20 139.75,-20 139.75,0 260,0 260,-20"/>
<text text-anchor="middle" x="199.88" y="-6.5" font-family="Helvetica,sans-Serif" font-size="10.00">src/SQL_Interpreter.cpp</text>
</a>
</g>
</g>
<!-- Node2&#45;&gt;Node4 -->
<g id="edge3_Node000002_Node000004" class="edge">
<title>Node2&#45;&gt;Node4</title>
<g id="a_edge3_Node000002_Node000004"><a xlink:title=" ">
<path fill="none" stroke="#63b8ff" d="M151.03,-48.68C163.07,-39.39 177.73,-28.09 187.82,-20.3"/>
<polygon fill="#63b8ff" stroke="#63b8ff" points="149.05,-45.79 143.27,-54.67 153.32,-51.33 149.05,-45.79"/>
</a>
</g>
</g>
</g>
</svg>
</svg>

<style type='text/css'>
<![CDATA[
[data-mouse-over-selected='false'] { opacity: 0.7; }
[data-mouse-over-selected='true']  { opacity: 1.0; }
]]>
</style>
<script type="application/ecmascript"><![CDATA[
document.addEventListener('DOMContentLoaded', (event) => {
  highlightEdges();
  highlightAdjacentNodes();
});
]]></script>
</svg>
