<?xml version="1.0" encoding="UTF-8" standalone="no"?>
<!DOCTYPE svg PUBLIC "-//W3C//DTD SVG 1.1//EN"
 "http://www.w3.org/Graphics/SVG/1.1/DTD/svg11.dtd">
<!-- Generated by graphviz version 12.1.0 (20240811.2233)
 -->
<!-- Title: include/parser.h Pages: 1 -->
<svg width="220pt" height="140pt"
 viewBox="0.00 0.00 220.12 140.00" xmlns="http://www.w3.org/2000/svg" xmlns:xlink="http://www.w3.org/1999/xlink">
<g id="graph0" class="graph" transform="scale(1 1) rotate(0) translate(4 136)">
<title>include/parser.h</title>
<!-- Node1 -->
<g id="Node000001" class="node">
<title>Node1</title>
<g id="a_Node000001"><a xlink:title=" ">
<polygon fill="#999999" stroke="#666666" points="160.38,-132 75.38,-132 75.38,-112 160.38,-112 160.38,-132"/>
<text text-anchor="middle" x="117.88" y="-118.5" font-family="Helvetica,sans-Serif" font-size="10.00">include/parser.h</text>
</a>
</g>
</g>
<!-- Node2 -->
<g id="Node000002" class="node">
<title>Node2</title>
<g id="a_Node000002"><a xlink:title=" ">
<polygon fill="#e0e0e0" stroke="#999999" points="73.75,-76 0,-76 0,-56 73.75,-56 73.75,-76"/>
<text text-anchor="middle" x="36.88" y="-62.5" font-family="Helvetica,sans-Serif" font-size="10.00">bits/stdc++.h</text>
</a>
</g>
</g>
<!-- Node1&#45;&gt;Node2 -->
<g id="edge1_Node000001_Node000002" class="edge">
<title>Node1&#45;&gt;Node2</title>
<g id="a_edge1_Node000001_Node000002"><a xlink:title=" ">
<path fill="none" stroke="#63b8ff" d="M103.77,-111.59C91.88,-103.67 74.61,-92.16 60.6,-82.82"/>
<polygon fill="#63b8ff" stroke="#63b8ff" points="62.62,-79.95 52.35,-77.32 58.73,-85.78 62.62,-79.95"/>
</a>
</g>
</g>
<!-- Node3 -->
<g id="Node000003" class="node">
<title>Node3</title>
<g id="a_Node000003"><a xlink:title=" ">
<polygon fill="#e0e0e0" stroke="#999999" points="143.5,-76 92.25,-76 92.25,-56 143.5,-56 143.5,-76"/>
<text text-anchor="middle" x="117.88" y="-62.5" font-family="Helvetica,sans-Serif" font-size="10.00">memory</text>
</a>
</g>
</g>
<!-- Node1&#45;&gt;Node3 -->
<g id="edge2_Node000001_Node000003" class="edge">
<title>Node1&#45;&gt;Node3</title>
<g id="a_edge2_Node000001_Node000003"><a xlink:title=" ">
<path fill="none" stroke="#63b8ff" d="M117.88,-111.59C117.88,-105.01 117.88,-95.96 117.88,-87.73"/>
<polygon fill="#63b8ff" stroke="#63b8ff" points="121.38,-87.81 117.88,-77.81 114.38,-87.81 121.38,-87.81"/>
</a>
</g>
</g>
<!-- Node4 -->
<g id="Node000004" class="node">
<title>Node4</title>
<g id="a_Node000004"><a xlink:href="Token_8h.html" target="_top" xlink:title=" ">
<polygon fill="white" stroke="#666666" points="212.12,-76 161.62,-76 161.62,-56 212.12,-56 212.12,-76"/>
<text text-anchor="middle" x="186.88" y="-62.5" font-family="Helvetica,sans-Serif" font-size="10.00">Token.h</text>
</a>
</g>
</g>
<!-- Node1&#45;&gt;Node4 -->
<g id="edge3_Node000001_Node000004" class="edge">
<title>Node1&#45;&gt;Node4</title>
<g id="a_edge3_Node000001_Node000004"><a xlink:title=" ">
<path fill="none" stroke="#63b8ff" d="M129.89,-111.59C139.89,-103.77 154.34,-92.46 166.18,-83.19"/>
<polygon fill="#63b8ff" stroke="#63b8ff" points="168.08,-86.15 173.8,-77.23 163.77,-80.64 168.08,-86.15"/>
</a>
</g>
</g>
<!-- Node5 -->
<g id="Node000005" class="node">
<title>Node5</title>
<g id="a_Node000005"><a xlink:title=" ">
<polygon fill="#e0e0e0" stroke="#999999" points="206.88,-20 166.88,-20 166.88,0 206.88,0 206.88,-20"/>
<text text-anchor="middle" x="186.88" y="-6.5" font-family="Helvetica,sans-Serif" font-size="10.00">string</text>
</a>
</g>
</g>
<!-- Node4&#45;&gt;Node5 -->
<g id="edge4_Node000004_Node000005" class="edge">
<title>Node4&#45;&gt;Node5</title>
<g id="a_edge4_Node000004_Node000005"><a xlink:title=" ">
<path fill="none" stroke="#63b8ff" d="M186.88,-55.59C186.88,-49.01 186.88,-39.96 186.88,-31.73"/>
<polygon fill="#63b8ff" stroke="#63b8ff" points="190.38,-31.81 186.88,-21.81 183.38,-31.81 190.38,-31.81"/>
</a>
</g>
</g>
</g>
</svg>
