<?xml version="1.0" encoding="UTF-8" standalone="no"?>
<!DOCTYPE svg PUBLIC "-//W3C//DTD SVG 1.1//EN"
 "http://www.w3.org/Graphics/SVG/1.1/DTD/svg11.dtd">
<!-- Generated by graphviz version 12.1.0 (20240811.2233)
 -->
<!-- Title: src/parser.cpp Pages: 1 -->
<svg width="668pt" height="196pt"
 viewBox="0.00 0.00 667.50 196.00" xmlns="http://www.w3.org/2000/svg" xmlns:xlink="http://www.w3.org/1999/xlink">
<g id="graph0" class="graph" transform="scale(1 1) rotate(0) translate(4 192)">
<title>src/parser.cpp</title>
<!-- Node1 -->
<g id="Node000001" class="node">
<title>Node1</title>
<g id="a_Node000001"><a xlink:title=" ">
<polygon fill="#999999" stroke="#666666" points="362,-188 283.75,-188 283.75,-168 362,-168 362,-188"/>
<text text-anchor="middle" x="322.88" y="-174.5" font-family="Helvetica,sans-Serif" font-size="10.00">src/parser.cpp</text>
</a>
</g>
</g>
<!-- Node2 -->
<g id="Node000002" class="node">
<title>Node2</title>
<g id="a_Node000002"><a xlink:href="parser_8h.html" target="_top" xlink:title=" ">
<polygon fill="white" stroke="#666666" points="149.5,-132 98.25,-132 98.25,-112 149.5,-112 149.5,-132"/>
<text text-anchor="middle" x="123.88" y="-118.5" font-family="Helvetica,sans-Serif" font-size="10.00">parser.h</text>
</a>
</g>
</g>
<!-- Node1&#45;&gt;Node2 -->
<g id="edge1_Node000001_Node000002" class="edge">
<title>Node1&#45;&gt;Node2</title>
<g id="a_edge1_Node000001_Node000002"><a xlink:title=" ">
<path fill="none" stroke="#63b8ff" d="M288.21,-167.59C252.49,-157.9 197.01,-142.85 160.56,-132.96"/>
<polygon fill="#63b8ff" stroke="#63b8ff" points="161.93,-129.7 151.36,-130.46 160.1,-136.46 161.93,-129.7"/>
</a>
</g>
</g>
<!-- Node4 -->
<g id="Node000004" class="node">
<title>Node4</title>
<g id="a_Node000004"><a xlink:title=" ">
<polygon fill="#e0e0e0" stroke="#999999" points="211.5,-76 160.25,-76 160.25,-56 211.5,-56 211.5,-76"/>
<text text-anchor="middle" x="185.88" y="-62.5" font-family="Helvetica,sans-Serif" font-size="10.00">memory</text>
</a>
</g>
</g>
<!-- Node1&#45;&gt;Node4 -->
<g id="edge9_Node000001_Node000004" class="edge">
<title>Node1&#45;&gt;Node4</title>
<g id="a_edge9_Node000001_Node000004"><a xlink:title=" ">
<path fill="none" stroke="#63b8ff" d="M283.3,-172.26C256.29,-166.95 221.77,-155.72 200.88,-132 190.21,-119.89 186.71,-101.71 185.74,-87.65"/>
<polygon fill="#63b8ff" stroke="#63b8ff" points="189.24,-87.6 185.46,-77.7 182.24,-87.79 189.24,-87.6"/>
</a>
</g>
</g>
<!-- Node7 -->
<g id="Node000007" class="node">
<title>Node7</title>
<g id="a_Node000007"><a xlink:title=" ">
<polygon fill="#e0e0e0" stroke="#999999" points="263.62,-132 210.12,-132 210.12,-112 263.62,-112 263.62,-132"/>
<text text-anchor="middle" x="236.88" y="-118.5" font-family="Helvetica,sans-Serif" font-size="10.00">iostream</text>
</a>
</g>
</g>
<!-- Node1&#45;&gt;Node7 -->
<g id="edge6_Node000001_Node000007" class="edge">
<title>Node1&#45;&gt;Node7</title>
<g id="a_edge6_Node000001_Node000007"><a xlink:title=" ">
<path fill="none" stroke="#63b8ff" d="M307.89,-167.59C295.15,-159.59 276.58,-147.93 261.63,-138.54"/>
<polygon fill="#63b8ff" stroke="#63b8ff" points="263.58,-135.64 253.25,-133.28 259.86,-141.57 263.58,-135.64"/>
</a>
</g>
</g>
<!-- Node8 -->
<g id="Node000008" class="node">
<title>Node8</title>
<g id="a_Node000008"><a xlink:title=" ">
<polygon fill="#e0e0e0" stroke="#999999" points="364.25,-132 281.5,-132 281.5,-112 364.25,-112 364.25,-132"/>
<text text-anchor="middle" x="322.88" y="-118.5" font-family="Helvetica,sans-Serif" font-size="10.00">unordered_map</text>
</a>
</g>
</g>
<!-- Node1&#45;&gt;Node8 -->
<g id="edge7_Node000001_Node000008" class="edge">
<title>Node1&#45;&gt;Node8</title>
<g id="a_edge7_Node000001_Node000008"><a xlink:title=" ">
<path fill="none" stroke="#63b8ff" d="M322.88,-167.59C322.88,-161.01 322.88,-151.96 322.88,-143.73"/>
<polygon fill="#63b8ff" stroke="#63b8ff" points="326.38,-143.81 322.88,-133.81 319.38,-143.81 326.38,-143.81"/>
</a>
</g>
</g>
<!-- Node9 -->
<g id="Node000009" class="node">
<title>Node9</title>
<g id="a_Node000009"><a xlink:title=" ">
<polygon fill="#e0e0e0" stroke="#999999" points="479.75,-132 382,-132 382,-112 479.75,-112 479.75,-132"/>
<text text-anchor="middle" x="430.88" y="-118.5" font-family="Helvetica,sans-Serif" font-size="10.00">nlohmann/json.hpp</text>
</a>
</g>
</g>
<!-- Node1&#45;&gt;Node9 -->
<g id="edge8_Node000001_Node000009" class="edge">
<title>Node1&#45;&gt;Node9</title>
<g id="a_edge8_Node000001_Node000009"><a xlink:title=" ">
<path fill="none" stroke="#63b8ff" d="M341.69,-167.59C358.23,-159.32 382.59,-147.14 401.67,-137.6"/>
<polygon fill="#63b8ff" stroke="#63b8ff" points="403.18,-140.76 410.56,-133.16 400.05,-134.5 403.18,-140.76"/>
</a>
</g>
</g>
<!-- Node10 -->
<g id="Node000010" class="node">
<title>Node10</title>
<g id="a_Node000010"><a xlink:title=" ">
<polygon fill="#e0e0e0" stroke="#999999" points="547.75,-132 498,-132 498,-112 547.75,-112 547.75,-132"/>
<text text-anchor="middle" x="522.88" y="-118.5" font-family="Helvetica,sans-Serif" font-size="10.00">iomanip</text>
</a>
</g>
</g>
<!-- Node1&#45;&gt;Node10 -->
<g id="edge10_Node000001_Node000010" class="edge">
<title>Node1&#45;&gt;Node10</title>
<g id="a_edge10_Node000001_Node000010"><a xlink:title=" ">
<path fill="none" stroke="#63b8ff" d="M357.71,-167.59C393.92,-157.82 450.32,-142.59 486.93,-132.7"/>
<polygon fill="#63b8ff" stroke="#63b8ff" points="487.41,-136.2 496.15,-130.21 485.59,-129.44 487.41,-136.2"/>
</a>
</g>
</g>
<!-- Node11 -->
<g id="Node000011" class="node">
<title>Node11</title>
<g id="a_Node000011"><a xlink:title=" ">
<polygon fill="#e0e0e0" stroke="#999999" points="659.5,-132 566.25,-132 566.25,-112 659.5,-112 659.5,-132"/>
<text text-anchor="middle" x="612.88" y="-118.5" font-family="Helvetica,sans-Serif" font-size="10.00">tabulate/table.hpp</text>
</a>
</g>
</g>
<!-- Node1&#45;&gt;Node11 -->
<g id="edge11_Node000001_Node000011" class="edge">
<title>Node1&#45;&gt;Node11</title>
<g id="a_edge11_Node000001_Node000011"><a xlink:title=" ">
<path fill="none" stroke="#63b8ff" d="M362.29,-169.66C411.94,-160.42 497.68,-144.45 554.83,-133.81"/>
<polygon fill="#63b8ff" stroke="#63b8ff" points="555.18,-137.3 564.37,-132.03 553.9,-130.42 555.18,-137.3"/>
</a>
</g>
</g>
<!-- Node3 -->
<g id="Node000003" class="node">
<title>Node3</title>
<g id="a_Node000003"><a xlink:title=" ">
<polygon fill="#e0e0e0" stroke="#999999" points="73.75,-76 0,-76 0,-56 73.75,-56 73.75,-76"/>
<text text-anchor="middle" x="36.88" y="-62.5" font-family="Helvetica,sans-Serif" font-size="10.00">bits/stdc++.h</text>
</a>
</g>
</g>
<!-- Node2&#45;&gt;Node3 -->
<g id="edge2_Node000002_Node000003" class="edge">
<title>Node2&#45;&gt;Node3</title>
<g id="a_edge2_Node000002_Node000003"><a xlink:title=" ">
<path fill="none" stroke="#63b8ff" d="M108.72,-111.59C95.83,-103.59 77.04,-91.93 61.92,-82.54"/>
<polygon fill="#63b8ff" stroke="#63b8ff" points="63.78,-79.58 53.43,-77.28 60.08,-85.53 63.78,-79.58"/>
</a>
</g>
</g>
<!-- Node2&#45;&gt;Node4 -->
<g id="edge3_Node000002_Node000004" class="edge">
<title>Node2&#45;&gt;Node4</title>
<g id="a_edge3_Node000002_Node000004"><a xlink:title=" ">
<path fill="none" stroke="#63b8ff" d="M134.67,-111.59C143.48,-103.93 156.13,-92.91 166.65,-83.75"/>
<polygon fill="#63b8ff" stroke="#63b8ff" points="168.82,-86.5 174.06,-77.29 164.22,-81.22 168.82,-86.5"/>
</a>
</g>
</g>
<!-- Node5 -->
<g id="Node000005" class="node">
<title>Node5</title>
<g id="a_Node000005"><a xlink:href="Token_8h.html" target="_top" xlink:title=" ">
<polygon fill="white" stroke="#666666" points="142.12,-76 91.62,-76 91.62,-56 142.12,-56 142.12,-76"/>
<text text-anchor="middle" x="116.88" y="-62.5" font-family="Helvetica,sans-Serif" font-size="10.00">Token.h</text>
</a>
</g>
</g>
<!-- Node2&#45;&gt;Node5 -->
<g id="edge4_Node000002_Node000005" class="edge">
<title>Node2&#45;&gt;Node5</title>
<g id="a_edge4_Node000002_Node000005"><a xlink:title=" ">
<path fill="none" stroke="#63b8ff" d="M122.66,-111.59C121.79,-104.93 120.6,-95.75 119.52,-87.44"/>
<polygon fill="#63b8ff" stroke="#63b8ff" points="123.03,-87.27 118.27,-77.8 116.09,-88.17 123.03,-87.27"/>
</a>
</g>
</g>
<!-- Node6 -->
<g id="Node000006" class="node">
<title>Node6</title>
<g id="a_Node000006"><a xlink:title=" ">
<polygon fill="#e0e0e0" stroke="#999999" points="136.88,-20 96.88,-20 96.88,0 136.88,0 136.88,-20"/>
<text text-anchor="middle" x="116.88" y="-6.5" font-family="Helvetica,sans-Serif" font-size="10.00">string</text>
</a>
</g>
</g>
<!-- Node5&#45;&gt;Node6 -->
<g id="edge5_Node000005_Node000006" class="edge">
<title>Node5&#45;&gt;Node6</title>
<g id="a_edge5_Node000005_Node000006"><a xlink:title=" ">
<path fill="none" stroke="#63b8ff" d="M116.88,-55.59C116.88,-49.01 116.88,-39.96 116.88,-31.73"/>
<polygon fill="#63b8ff" stroke="#63b8ff" points="120.38,-31.81 116.88,-21.81 113.38,-31.81 120.38,-31.81"/>
</a>
</g>
</g>
</g>
</svg>
