<?xml version="1.0" encoding="UTF-8" standalone="no"?>
<!DOCTYPE svg PUBLIC "-//W3C//DTD SVG 1.1//EN"
 "http://www.w3.org/Graphics/SVG/1.1/DTD/svg11.dtd">
<!-- Generated by graphviz version 12.1.0 (20240811.2233)
 -->
<!-- Title: include/SQL_Intepreter.h Pages: 1 -->
<svg width="516pt" height="196pt"
 viewBox="0.00 0.00 516.38 196.00" xmlns="http://www.w3.org/2000/svg" xmlns:xlink="http://www.w3.org/1999/xlink">
<g id="graph0" class="graph" transform="scale(1 1) rotate(0) translate(4 192)">
<title>include/SQL_Intepreter.h</title>
<!-- Node1 -->
<g id="Node000001" class="node">
<title>Node1</title>
<g id="a_Node000001"><a xlink:title=" ">
<polygon fill="#999999" stroke="#666666" points="228.75,-188 104.75,-188 104.75,-168 228.75,-168 228.75,-188"/>
<text text-anchor="middle" x="166.75" y="-174.5" font-family="Helvetica,sans-Serif" font-size="10.00">include/SQL_Intepreter.h</text>
</a>
</g>
</g>
<!-- Node2 -->
<g id="Node000002" class="node">
<title>Node2</title>
<g id="a_Node000002"><a xlink:title=" ">
<polygon fill="#e0e0e0" stroke="#999999" points="53.5,-76 0,-76 0,-56 53.5,-56 53.5,-76"/>
<text text-anchor="middle" x="26.75" y="-62.5" font-family="Helvetica,sans-Serif" font-size="10.00">iostream</text>
</a>
</g>
</g>
<!-- Node1&#45;&gt;Node2 -->
<g id="edge1_Node000001_Node000002" class="edge">
<title>Node1&#45;&gt;Node2</title>
<g id="a_edge1_Node000001_Node000002"><a xlink:title=" ">
<path fill="none" stroke="#63b8ff" d="M154.81,-167.62C130.95,-148.87 77.09,-106.55 47.38,-83.21"/>
<polygon fill="#63b8ff" stroke="#63b8ff" points="49.87,-80.72 39.85,-77.29 45.55,-86.22 49.87,-80.72"/>
</a>
</g>
</g>
<!-- Node3 -->
<g id="Node000003" class="node">
<title>Node3</title>
<g id="a_Node000003"><a xlink:href="Lexer_8h.html" target="_top" xlink:title=" ">
<polygon fill="white" stroke="#666666" points="190.88,-132 142.62,-132 142.62,-112 190.88,-112 190.88,-132"/>
<text text-anchor="middle" x="166.75" y="-118.5" font-family="Helvetica,sans-Serif" font-size="10.00">Lexer.h</text>
</a>
</g>
</g>
<!-- Node1&#45;&gt;Node3 -->
<g id="edge2_Node000001_Node000003" class="edge">
<title>Node1&#45;&gt;Node3</title>
<g id="a_edge2_Node000001_Node000003"><a xlink:title=" ">
<path fill="none" stroke="#63b8ff" d="M166.75,-167.59C166.75,-161.01 166.75,-151.96 166.75,-143.73"/>
<polygon fill="#63b8ff" stroke="#63b8ff" points="170.25,-143.81 166.75,-133.81 163.25,-143.81 170.25,-143.81"/>
</a>
</g>
</g>
<!-- Node9 -->
<g id="Node000009" class="node">
<title>Node9</title>
<g id="a_Node000009"><a xlink:href="parser_8h.html" target="_top" xlink:title=" ">
<polygon fill="white" stroke="#666666" points="387.38,-132 336.12,-132 336.12,-112 387.38,-112 387.38,-132"/>
<text text-anchor="middle" x="361.75" y="-118.5" font-family="Helvetica,sans-Serif" font-size="10.00">parser.h</text>
</a>
</g>
</g>
<!-- Node1&#45;&gt;Node9 -->
<g id="edge10_Node000001_Node000009" class="edge">
<title>Node1&#45;&gt;Node9</title>
<g id="a_edge10_Node000001_Node000009"><a xlink:title=" ">
<path fill="none" stroke="#63b8ff" d="M200.72,-167.59C235.38,-158 289.01,-143.14 324.73,-133.25"/>
<polygon fill="#63b8ff" stroke="#63b8ff" points="325.49,-136.67 334.2,-130.63 323.62,-129.93 325.49,-136.67"/>
</a>
</g>
</g>
<!-- Node3&#45;&gt;Node2 -->
<g id="edge5_Node000003_Node000002" class="edge">
<title>Node3&#45;&gt;Node2</title>
<g id="a_edge5_Node000003_Node000002"><a xlink:title=" ">
<path fill="none" stroke="#63b8ff" d="M142.36,-111.59C120.12,-103.01 86.98,-90.23 61.88,-80.55"/>
<polygon fill="#63b8ff" stroke="#63b8ff" points="63.33,-77.36 52.74,-77.02 60.81,-83.89 63.33,-77.36"/>
</a>
</g>
</g>
<!-- Node4 -->
<g id="Node000004" class="node">
<title>Node4</title>
<g id="a_Node000004"><a xlink:title=" ">
<polygon fill="#e0e0e0" stroke="#999999" points="114.25,-76 71.25,-76 71.25,-56 114.25,-56 114.25,-76"/>
<text text-anchor="middle" x="92.75" y="-62.5" font-family="Helvetica,sans-Serif" font-size="10.00">vector</text>
</a>
</g>
</g>
<!-- Node3&#45;&gt;Node4 -->
<g id="edge3_Node000003_Node000004" class="edge">
<title>Node3&#45;&gt;Node4</title>
<g id="a_edge3_Node000003_Node000004"><a xlink:title=" ">
<path fill="none" stroke="#63b8ff" d="M153.86,-111.59C143.04,-103.7 127.34,-92.24 114.56,-82.92"/>
<polygon fill="#63b8ff" stroke="#63b8ff" points="116.86,-80.26 106.71,-77.19 112.73,-85.91 116.86,-80.26"/>
</a>
</g>
</g>
<!-- Node5 -->
<g id="Node000005" class="node">
<title>Node5</title>
<g id="a_Node000005"><a xlink:title=" ">
<polygon fill="#e0e0e0" stroke="#999999" points="251.75,-20 211.75,-20 211.75,0 251.75,0 251.75,-20"/>
<text text-anchor="middle" x="231.75" y="-6.5" font-family="Helvetica,sans-Serif" font-size="10.00">string</text>
</a>
</g>
</g>
<!-- Node3&#45;&gt;Node5 -->
<g id="edge4_Node000003_Node000005" class="edge">
<title>Node3&#45;&gt;Node5</title>
<g id="a_edge4_Node000003_Node000005"><a xlink:title=" ">
<path fill="none" stroke="#63b8ff" d="M163.11,-111.94C158.43,-98.75 151.99,-73.88 161.75,-56 170.16,-40.59 186.36,-29.67 201.05,-22.45"/>
<polygon fill="#63b8ff" stroke="#63b8ff" points="202.28,-25.74 209.98,-18.46 199.42,-19.35 202.28,-25.74"/>
</a>
</g>
</g>
<!-- Node6 -->
<g id="Node000006" class="node">
<title>Node6</title>
<g id="a_Node000006"><a xlink:title=" ">
<polygon fill="#e0e0e0" stroke="#999999" points="210.75,-76 170.75,-76 170.75,-56 210.75,-56 210.75,-76"/>
<text text-anchor="middle" x="190.75" y="-62.5" font-family="Helvetica,sans-Serif" font-size="10.00">regex</text>
</a>
</g>
</g>
<!-- Node3&#45;&gt;Node6 -->
<g id="edge6_Node000003_Node000006" class="edge">
<title>Node3&#45;&gt;Node6</title>
<g id="a_edge6_Node000003_Node000006"><a xlink:title=" ">
<path fill="none" stroke="#63b8ff" d="M170.93,-111.59C173.99,-104.7 178.26,-95.1 182.05,-86.57"/>
<polygon fill="#63b8ff" stroke="#63b8ff" points="185.14,-88.24 186,-77.68 178.74,-85.4 185.14,-88.24"/>
</a>
</g>
</g>
<!-- Node7 -->
<g id="Node000007" class="node">
<title>Node7</title>
<g id="a_Node000007"><a xlink:title=" ">
<polygon fill="#e0e0e0" stroke="#999999" points="278.25,-76 229.25,-76 229.25,-56 278.25,-56 278.25,-76"/>
<text text-anchor="middle" x="253.75" y="-62.5" font-family="Helvetica,sans-Serif" font-size="10.00">fstream</text>
</a>
</g>
</g>
<!-- Node3&#45;&gt;Node7 -->
<g id="edge7_Node000003_Node000007" class="edge">
<title>Node3&#45;&gt;Node7</title>
<g id="a_edge7_Node000003_Node000007"><a xlink:title=" ">
<path fill="none" stroke="#63b8ff" d="M181.9,-111.59C194.8,-103.59 213.58,-91.93 228.71,-82.54"/>
<polygon fill="#63b8ff" stroke="#63b8ff" points="230.54,-85.53 237.19,-77.28 226.85,-79.58 230.54,-85.53"/>
</a>
</g>
</g>
<!-- Node8 -->
<g id="Node000008" class="node">
<title>Node8</title>
<g id="a_Node000008"><a xlink:href="Token_8h.html" target="_top" xlink:title=" ">
<polygon fill="white" stroke="#666666" points="347,-76 296.5,-76 296.5,-56 347,-56 347,-76"/>
<text text-anchor="middle" x="321.75" y="-62.5" font-family="Helvetica,sans-Serif" font-size="10.00">Token.h</text>
</a>
</g>
</g>
<!-- Node3&#45;&gt;Node8 -->
<g id="edge8_Node000003_Node000008" class="edge">
<title>Node3&#45;&gt;Node8</title>
<g id="a_edge8_Node000003_Node000008"><a xlink:title=" ">
<path fill="none" stroke="#63b8ff" d="M191.31,-112.44C216.67,-103.61 256.51,-89.73 285.49,-79.63"/>
<polygon fill="#63b8ff" stroke="#63b8ff" points="286.29,-83.06 294.58,-76.46 283.99,-76.45 286.29,-83.06"/>
</a>
</g>
</g>
<!-- Node8&#45;&gt;Node5 -->
<g id="edge9_Node000008_Node000005" class="edge">
<title>Node8&#45;&gt;Node5</title>
<g id="a_edge9_Node000008_Node000005"><a xlink:title=" ">
<path fill="none" stroke="#63b8ff" d="M306.07,-55.59C292.61,-47.51 272.93,-35.71 257.21,-26.27"/>
<polygon fill="#63b8ff" stroke="#63b8ff" points="259.22,-23.4 248.85,-21.26 255.62,-29.4 259.22,-23.4"/>
</a>
</g>
</g>
<!-- Node9&#45;&gt;Node8 -->
<g id="edge13_Node000009_Node000008" class="edge">
<title>Node9&#45;&gt;Node8</title>
<g id="a_edge13_Node000009_Node000008"><a xlink:title=" ">
<path fill="none" stroke="#63b8ff" d="M354.78,-111.59C349.45,-104.39 341.92,-94.23 335.4,-85.43"/>
<polygon fill="#63b8ff" stroke="#63b8ff" points="338.3,-83.47 329.54,-77.51 332.68,-87.63 338.3,-83.47"/>
</a>
</g>
</g>
<!-- Node10 -->
<g id="Node000010" class="node">
<title>Node10</title>
<g id="a_Node000010"><a xlink:title=" ">
<polygon fill="#e0e0e0" stroke="#999999" points="438.62,-76 364.88,-76 364.88,-56 438.62,-56 438.62,-76"/>
<text text-anchor="middle" x="401.75" y="-62.5" font-family="Helvetica,sans-Serif" font-size="10.00">bits/stdc++.h</text>
</a>
</g>
</g>
<!-- Node9&#45;&gt;Node10 -->
<g id="edge11_Node000009_Node000010" class="edge">
<title>Node9&#45;&gt;Node10</title>
<g id="a_edge11_Node000009_Node000010"><a xlink:title=" ">
<path fill="none" stroke="#63b8ff" d="M368.72,-111.59C374.05,-104.39 381.58,-94.23 388.1,-85.43"/>
<polygon fill="#63b8ff" stroke="#63b8ff" points="390.82,-87.63 393.96,-77.51 385.2,-83.47 390.82,-87.63"/>
</a>
</g>
</g>
<!-- Node11 -->
<g id="Node000011" class="node">
<title>Node11</title>
<g id="a_Node000011"><a xlink:title=" ">
<polygon fill="#e0e0e0" stroke="#999999" points="508.38,-76 457.12,-76 457.12,-56 508.38,-56 508.38,-76"/>
<text text-anchor="middle" x="482.75" y="-62.5" font-family="Helvetica,sans-Serif" font-size="10.00">memory</text>
</a>
</g>
</g>
<!-- Node9&#45;&gt;Node11 -->
<g id="edge12_Node000009_Node000011" class="edge">
<title>Node9&#45;&gt;Node11</title>
<g id="a_edge12_Node000009_Node000011"><a xlink:title=" ">
<path fill="none" stroke="#63b8ff" d="M382.83,-111.59C401.71,-103.17 429.67,-90.69 451.21,-81.07"/>
<polygon fill="#63b8ff" stroke="#63b8ff" points="452.42,-84.37 460.13,-77.1 449.57,-77.98 452.42,-84.37"/>
</a>
</g>
</g>
</g>
</svg>
