<?xml version="1.0" encoding="UTF-8" standalone="no"?>
<!DOCTYPE svg PUBLIC "-//W3C//DTD SVG 1.1//EN"
 "http://www.w3.org/Graphics/SVG/1.1/DTD/svg11.dtd">
<!-- Generated by graphviz version 12.1.0 (20240811.2233)
 -->
<!-- Title: include/SQL_Intepreter.h Pages: 1 -->
<svg width="268pt" height="84pt"
 viewBox="0.00 0.00 268.00 84.00" xmlns="http://www.w3.org/2000/svg" xmlns:xlink="http://www.w3.org/1999/xlink">
<g id="graph0" class="graph" transform="scale(1 1) rotate(0) translate(4 80)">
<title>include/SQL_Intepreter.h</title>
<!-- Node1 -->
<g id="Node000001" class="node">
<title>Node1</title>
<g id="a_Node000001"><a xlink:title=" ">
<polygon fill="#999999" stroke="#666666" points="191.88,-76 67.88,-76 67.88,-56 191.88,-56 191.88,-76"/>
<text text-anchor="middle" x="129.88" y="-62.5" font-family="Helvetica,sans-Serif" font-size="10.00">include/SQL_Intepreter.h</text>
</a>
</g>
</g>
<!-- Node2 -->
<g id="Node000002" class="node">
<title>Node2</title>
<g id="a_Node000002"><a xlink:href="Interpreter__main_8cpp.html" target="_top" xlink:title=" ">
<polygon fill="white" stroke="#666666" points="121.75,-20 0,-20 0,0 121.75,0 121.75,-20"/>
<text text-anchor="middle" x="60.88" y="-6.5" font-family="Helvetica,sans-Serif" font-size="10.00">src/Interpreter_main.cpp</text>
</a>
</g>
</g>
<!-- Node1&#45;&gt;Node2 -->
<g id="edge1_Node000001_Node000002" class="edge">
<title>Node1&#45;&gt;Node2</title>
<g id="a_edge1_Node000001_Node000002"><a xlink:title=" ">
<path fill="none" stroke="#63b8ff" d="M109.02,-48.68C97.15,-39.39 82.71,-28.09 72.76,-20.3"/>
<polygon fill="#63b8ff" stroke="#63b8ff" points="106.63,-51.25 116.66,-54.66 110.95,-45.74 106.63,-51.25"/>
</a>
</g>
</g>
<!-- Node3 -->
<g id="Node000003" class="node">
<title>Node3</title>
<g id="a_Node000003"><a xlink:href="SQL__Interpreter_8cpp.html" target="_top" xlink:title=" ">
<polygon fill="white" stroke="#666666" points="260,-20 139.75,-20 139.75,0 260,0 260,-20"/>
<text text-anchor="middle" x="199.88" y="-6.5" font-family="Helvetica,sans-Serif" font-size="10.00">src/SQL_Interpreter.cpp</text>
</a>
</g>
</g>
<!-- Node1&#45;&gt;Node3 -->
<g id="edge2_Node000001_Node000003" class="edge">
<title>Node1&#45;&gt;Node3</title>
<g id="a_edge2_Node000001_Node000003"><a xlink:title=" ">
<path fill="none" stroke="#63b8ff" d="M151.03,-48.68C163.07,-39.39 177.73,-28.09 187.82,-20.3"/>
<polygon fill="#63b8ff" stroke="#63b8ff" points="149.05,-45.79 143.27,-54.67 153.32,-51.33 149.05,-45.79"/>
</a>
</g>
</g>
</g>
</svg>
