<?xml version="1.0" encoding="UTF-8" standalone="no"?>
<!DOCTYPE svg PUBLIC "-//W3C//DTD SVG 1.1//EN"
 "http://www.w3.org/Graphics/SVG/1.1/DTD/svg11.dtd">
<!-- Generated by graphviz version 12.1.0 (20240811.2233)
 -->
<!-- Title: include/Token.h Pages: 1 -->
<svg width="352pt" height="196pt"
 viewBox="0.00 0.00 352.38 196.00" xmlns="http://www.w3.org/2000/svg" xmlns:xlink="http://www.w3.org/1999/xlink">

<svg id="main" version="1.1" xmlns="http://www.w3.org/2000/svg" xmlns:xlink="http://www.w3.org/1999/xlink" xml:space="preserve">

<style type="text/css"><![CDATA[
.node, .edge {opacity: 0.7;}
.node.selected, .edge.selected {opacity: 1;}
.edge:hover path { stroke: red; }
.edge:hover polygon { stroke: red; fill: red; }
]]></style>
<script type="application/ecmascript" xlink:href="svg.min.js"/>
<svg id="graph" class="graph">
<g id="graph0" class="graph" transform="scale(1 1) rotate(0) translate(4 192)">
<title>include/Token.h</title>
<!-- Node1 -->
<g id="Node000001" class="node">
<title>Node1</title>
<g id="a_Node000001"><a xlink:title=" ">
<polygon fill="#999999" stroke="#666666" points="248.75,-188 164.5,-188 164.5,-168 248.75,-168 248.75,-188"/>
<text text-anchor="middle" x="206.62" y="-174.5" font-family="Helvetica,sans-Serif" font-size="10.00">include/Token.h</text>
</a>
</g>
</g>
<!-- Node2 -->
<g id="Node000002" class="node">
<title>Node2</title>
<g id="a_Node000002"><a xlink:href="Lexer_8h.html" target="_top" xlink:title=" ">
<polygon fill="white" stroke="#666666" points="145.62,-132 63.62,-132 63.62,-112 145.62,-112 145.62,-132"/>
<text text-anchor="middle" x="104.62" y="-118.5" font-family="Helvetica,sans-Serif" font-size="10.00">include/Lexer.h</text>
</a>
</g>
</g>
<!-- Node1&#45;&gt;Node2 -->
<g id="edge1_Node000001_Node000002" class="edge">
<title>Node1&#45;&gt;Node2</title>
<g id="a_edge1_Node000001_Node000002"><a xlink:title=" ">
<path fill="none" stroke="#63b8ff" d="M178.7,-162.21C160.78,-152.73 138.06,-140.7 122.53,-132.48"/>
<polygon fill="#63b8ff" stroke="#63b8ff" points="177.04,-165.3 187.52,-166.89 180.32,-159.11 177.04,-165.3"/>
</a>
</g>
</g>
<!-- Node7 -->
<g id="Node000007" class="node">
<title>Node7</title>
<g id="a_Node000007"><a xlink:href="parser_8h.html" target="_top" xlink:title=" ">
<polygon fill="white" stroke="#666666" points="249.12,-132 164.12,-132 164.12,-112 249.12,-112 249.12,-132"/>
<text text-anchor="middle" x="206.62" y="-118.5" font-family="Helvetica,sans-Serif" font-size="10.00">include/parser.h</text>
</a>
</g>
</g>
<!-- Node1&#45;&gt;Node7 -->
<g id="edge6_Node000001_Node000007" class="edge">
<title>Node1&#45;&gt;Node7</title>
<g id="a_edge6_Node000001_Node000007"><a xlink:title=" ">
<path fill="none" stroke="#63b8ff" d="M206.62,-156.13C206.62,-147.9 206.62,-138.85 206.62,-132.3"/>
<polygon fill="#63b8ff" stroke="#63b8ff" points="203.13,-156.08 206.63,-166.08 210.13,-156.08 203.13,-156.08"/>
</a>
</g>
</g>
<!-- Node9 -->
<g id="Node000009" class="node">
<title>Node9</title>
<g id="a_Node000009"><a xlink:href="Token_8cpp.html" target="_top" xlink:title=" ">
<polygon fill="white" stroke="#666666" points="344.38,-132 266.88,-132 266.88,-112 344.38,-112 344.38,-132"/>
<text text-anchor="middle" x="305.62" y="-118.5" font-family="Helvetica,sans-Serif" font-size="10.00">src/Token.cpp</text>
</a>
</g>
</g>
<!-- Node1&#45;&gt;Node9 -->
<g id="edge9_Node000001_Node000009" class="edge">
<title>Node1&#45;&gt;Node9</title>
<g id="a_edge9_Node000001_Node000009"><a xlink:title=" ">
<path fill="none" stroke="#63b8ff" d="M233.49,-162.35C250.91,-152.84 273.11,-140.74 288.25,-132.48"/>
<polygon fill="#63b8ff" stroke="#63b8ff" points="232.3,-159.01 225.2,-166.87 235.65,-165.15 232.3,-159.01"/>
</a>
</g>
</g>
<!-- Node3 -->
<g id="Node000003" class="node">
<title>Node3</title>
<g id="a_Node000003"><a xlink:href="SQL__Intepreter_8h.html" target="_top" xlink:title=" ">
<polygon fill="white" stroke="#666666" points="217.62,-76 93.62,-76 93.62,-56 217.62,-56 217.62,-76"/>
<text text-anchor="middle" x="155.62" y="-62.5" font-family="Helvetica,sans-Serif" font-size="10.00">include/SQL_Intepreter.h</text>
</a>
</g>
</g>
<!-- Node2&#45;&gt;Node3 -->
<g id="edge2_Node000002_Node000003" class="edge">
<title>Node2&#45;&gt;Node3</title>
<g id="a_edge2_Node000002_Node000003"><a xlink:title=" ">
<path fill="none" stroke="#63b8ff" d="M121.36,-103.29C129.86,-94.28 139.85,-83.7 146.84,-76.3"/>
<polygon fill="#63b8ff" stroke="#63b8ff" points="118.87,-100.82 114.55,-110.49 123.96,-105.63 118.87,-100.82"/>
</a>
</g>
</g>
<!-- Node6 -->
<g id="Node000006" class="node">
<title>Node6</title>
<g id="a_Node000006"><a xlink:href="Lexer_8cpp.html" target="_top" xlink:title=" ">
<polygon fill="white" stroke="#666666" points="75.25,-76 0,-76 0,-56 75.25,-56 75.25,-76"/>
<text text-anchor="middle" x="37.62" y="-62.5" font-family="Helvetica,sans-Serif" font-size="10.00">src/Lexer.cpp</text>
</a>
</g>
</g>
<!-- Node2&#45;&gt;Node6 -->
<g id="edge5_Node000002_Node000006" class="edge">
<title>Node2&#45;&gt;Node6</title>
<g id="a_edge5_Node000002_Node000006"><a xlink:title=" ">
<path fill="none" stroke="#63b8ff" d="M84.03,-104.4C72.57,-95.17 58.73,-84.01 49.16,-76.3"/>
<polygon fill="#63b8ff" stroke="#63b8ff" points="81.79,-107.09 91.78,-110.64 86.19,-101.64 81.79,-107.09"/>
</a>
</g>
</g>
<!-- Node4 -->
<g id="Node000004" class="node">
<title>Node4</title>
<g id="a_Node000004"><a xlink:href="Interpreter__main_8cpp.html" target="_top" xlink:title=" ">
<polygon fill="white" stroke="#666666" points="146.5,-20 24.75,-20 24.75,0 146.5,0 146.5,-20"/>
<text text-anchor="middle" x="85.62" y="-6.5" font-family="Helvetica,sans-Serif" font-size="10.00">src/Interpreter_main.cpp</text>
</a>
</g>
</g>
<!-- Node3&#45;&gt;Node4 -->
<g id="edge3_Node000003_Node000004" class="edge">
<title>Node3&#45;&gt;Node4</title>
<g id="a_edge3_Node000003_Node000004"><a xlink:title=" ">
<path fill="none" stroke="#63b8ff" d="M134.47,-48.68C122.43,-39.39 107.77,-28.09 97.68,-20.3"/>
<polygon fill="#63b8ff" stroke="#63b8ff" points="132.18,-51.33 142.23,-54.67 136.45,-45.79 132.18,-51.33"/>
</a>
</g>
</g>
<!-- Node5 -->
<g id="Node000005" class="node">
<title>Node5</title>
<g id="a_Node000005"><a xlink:href="SQL__Interpreter_8cpp.html" target="_top" xlink:title=" ">
<polygon fill="white" stroke="#666666" points="284.75,-20 164.5,-20 164.5,0 284.75,0 284.75,-20"/>
<text text-anchor="middle" x="224.62" y="-6.5" font-family="Helvetica,sans-Serif" font-size="10.00">src/SQL_Interpreter.cpp</text>
</a>
</g>
</g>
<!-- Node3&#45;&gt;Node5 -->
<g id="edge4_Node000003_Node000005" class="edge">
<title>Node3&#45;&gt;Node5</title>
<g id="a_edge4_Node000003_Node000005"><a xlink:title=" ">
<path fill="none" stroke="#63b8ff" d="M176.48,-48.68C188.35,-39.39 202.79,-28.09 212.74,-20.3"/>
<polygon fill="#63b8ff" stroke="#63b8ff" points="174.55,-45.74 168.84,-54.66 178.87,-51.25 174.55,-45.74"/>
</a>
</g>
</g>
<!-- Node7&#45;&gt;Node3 -->
<g id="edge7_Node000007_Node000003" class="edge">
<title>Node7&#45;&gt;Node3</title>
<g id="a_edge7_Node000007_Node000003"><a xlink:title=" ">
<path fill="none" stroke="#63b8ff" d="M189.89,-103.29C181.39,-94.28 171.4,-83.7 164.41,-76.3"/>
<polygon fill="#63b8ff" stroke="#63b8ff" points="187.29,-105.63 196.7,-110.49 192.38,-100.82 187.29,-105.63"/>
</a>
</g>
</g>
<!-- Node8 -->
<g id="Node000008" class="node">
<title>Node8</title>
<g id="a_Node000008"><a xlink:href="parser_8cpp.html" target="_top" xlink:title=" ">
<polygon fill="white" stroke="#666666" points="313.75,-76 235.5,-76 235.5,-56 313.75,-56 313.75,-76"/>
<text text-anchor="middle" x="274.62" y="-62.5" font-family="Helvetica,sans-Serif" font-size="10.00">src/parser.cpp</text>
</a>
</g>
</g>
<!-- Node7&#45;&gt;Node8 -->
<g id="edge8_Node000007_Node000008" class="edge">
<title>Node7&#45;&gt;Node8</title>
<g id="a_edge8_Node000007_Node000008"><a xlink:title=" ">
<path fill="none" stroke="#63b8ff" d="M227.18,-104.68C238.88,-95.39 253.11,-84.09 262.92,-76.3"/>
<polygon fill="#63b8ff" stroke="#63b8ff" points="225.31,-101.69 219.65,-110.65 229.66,-107.17 225.31,-101.69"/>
</a>
</g>
</g>
</g>
</svg>
</svg>

<style type='text/css'>
<![CDATA[
[data-mouse-over-selected='false'] { opacity: 0.7; }
[data-mouse-over-selected='true']  { opacity: 1.0; }
]]>
</style>
<script type="application/ecmascript"><![CDATA[
document.addEventListener('DOMContentLoaded', (event) => {
  highlightEdges();
  highlightAdjacentNodes();
});
]]></script>
</svg>
